Renner-600-SemiItalic.ufo
<glyph name="quotedbl" format="1">
  <advance width="502"/>
  <unicode hex="0022"/>
  <outline>
    <contour>
      <point x="235" y="700" type="line"/>
      <point x="377" y="700" type="line"/>
      <point x="220" y="386" type="line"/>
      <point x="134" y="386" type="line"/>
    </contour>
    <contour>
      <point x="437" y="700" type="line"/>
      <point x="579" y="700" type="line"/>
      <point x="423" y="386" type="line"/>
      <point x="336" y="386" type="line"/>
    </contour>
  </outline>
</glyph>
<glyph name="numbersign" format="1">
  <advance width="648"/>
  <unicode hex="0023"/>
  <outline>
    <contour>
      <point x="149" y="420" type="line"/>
      <point x="167" y="524" type="line"/>
      <point x="706" y="524" type="line"/>
      <point x="688" y="420" type="line"/>
      <point x="538" y="420" type="line" smooth="yes"/>
      <point x="513" y="424" type="line" smooth="yes"/>
      <point x="313" y="424" type="line" smooth="yes"/>
      <point x="290" y="420" type="line" smooth="yes"/>
    </contour>
    <contour>
      <point x="67" y="180" type="line"/>
      <point x="85" y="284" type="line"/>
      <point x="223" y="284" type="line" smooth="yes"/>
      <point x="249" y="280" type="line" smooth="yes"/>
      <point x="470" y="280" type="line" smooth="yes"/>
      <point x="498" y="284" type="line" smooth="yes"/>
      <point x="624" y="284" type="line"/>
      <point x="606" y="180" type="line"/>
    </contour>
    <contour>
      <point x="591" y="700" type="line"/>
      <point x="705" y="700" type="line"/>
      <point x="412" y="0" type="line"/>
      <point x="298" y="0" type="line"/>
      <point x="392" y="225" type="line" smooth="yes"/>
      <point x="406" y="249" type="line" smooth="yes"/>
      <point x="494" y="458" type="line" smooth="yes"/>
      <point x="501" y="484" type="line" smooth="yes"/>
    </contour>
    <contour>
      <point x="359" y="700" type="line"/>
      <point x="474" y="700" type="line"/>
      <point x="384" y="486" type="line" smooth="yes"/>
      <point x="369" y="459" type="line" smooth="yes"/>
      <point x="280" y="250" type="line" smooth="yes"/>
      <point x="275" y="226" type="line" smooth="yes"/>
      <point x="181" y="0" type="line"/>
      <point x="66" y="0" type="line"/>
    </contour>
  </outline>
</glyph>
<glyph name="dollar" format="1">
  <advance width="608"/>
  <unicode hex="0024"/>
  <outline>
    <contour>
      <point x="405" y="818" type="line"/>
      <point x="514" y="818" type="line"/>
      <point x="480" y="646" type="line"/>
      <point x="380" y="646" type="line"/>
    </contour>
    <contour>
      <point x="276" y="58" type="line"/>
      <point x="376" y="58" type="line"/>
      <point x="350" y="-112" type="line"/>
      <point x="241" y="-112" type="line"/>
    </contour>
    <contour>
      <point x="533" y="496" type="line"/>
      <point x="513" y="554"/>
      <point x="482" y="599"/>
      <point x="422" y="599" type="curve" smooth="yes"/>
      <point x="360" y="599"/>
      <point x="328" y="570"/>
      <point x="320" y="526" type="curve" smooth="yes"/>
      <point x="309" y="462"/>
      <point x="381" y="440"/>
      <point x="460" y="408" type="curve" smooth="yes"/>
      <point x="542" y="376"/>
      <point x="622" y="316"/>
      <point x="600" y="194" type="curve" smooth="yes"/>
      <point x="577" y="66"/>
      <point x="468" y="-10"/>
      <point x="312" y="-10" type="curve" smooth="yes"/>
      <point x="188" y="-10"/>
      <point x="96" y="70"/>
      <point x="70" y="172" type="curve"/>
      <point x="187" y="244" type="line"/>
      <point x="217" y="156"/>
      <point x="259" y="108"/>
      <point x="337" y="108" type="curve" smooth="yes"/>
      <point x="403" y="108"/>
      <point x="439" y="139"/>
      <point x="448" y="191" type="curve" smooth="yes"/>
      <point x="460" y="257"/>
      <point x="396" y="282"/>
      <point x="319" y="313" type="curve" smooth="yes"/>
      <point x="254" y="339"/>
      <point x="149" y="393"/>
      <point x="172" y="526" type="curve" smooth="yes"/>
      <point x="190" y="626"/>
      <point x="301" y="710"/>
      <point x="437" y="710" type="curve" smooth="yes"/>
      <point x="572" y="710"/>
      <point x="630" y="636"/>
      <point x="655" y="562" type="curve"/>
    </contour>
  </outline>
</glyph>
<glyph name="parenleft" format="1">
  <advance width="331"/>
  <unicode hex="0028"/>
  <outline>
    <contour>
      <point x="332" y="780" type="curve"/>
      <point x="451" y="780" type="line"/>
      <point x="355" y="630"/>
      <point x="287" y="460"/>
      <point x="257" y="290" type="curve" smooth="yes"/>
      <point x="227" y="120"/>
      <point x="234" y="-50"/>
      <point x="278" y="-200" type="curve"/>
      <point x="159" y="-200" type="line"/>
      <point x="105" y="-50"/>
      <point x="95" y="120"/>
      <point x="125" y="290" type="curve" smooth="yes"/>
      <point x="155" y="460"/>
      <point x="226" y="630"/>
    </contour>
  </outline>
</glyph>
<glyph name="plus" format="1">
  <advance width="656"/>
  <unicode hex="002B"/>
  <outline>
    <contour>
      <point x="101" y="202" type="line"/>
      <point x="123" y="328" type="line"/>
      <point x="650" y="328" type="line"/>
      <point x="628" y="202" type="line"/>
    </contour>
    <contour>
      <point x="353" y="528" type="line"/>
      <point x="489" y="528" type="line"/>
      <point x="396" y="2" type="line"/>
      <point x="260" y="2" type="line"/>
    </contour>
  </outline>
</glyph>
<glyph name="comma" format="1">
  <advance width="318"/>
  <unicode hex="002C"/>
  <outline>
    <contour>
      <point x="147" y="110" type="line"/>
      <point x="273" y="78" type="line"/>
      <point x="108" y="-172" type="line"/>
      <point x="14" y="-149" type="line"/>
    </contour>
  </outline>
</glyph>
<glyph name="zero" format="1">
  <advance width="643"/>
  <unicode hex="0030"/>
  <outline>
    <contour>
      <point x="242" y="350" type="curve" smooth="yes"/>
      <point x="217" y="209"/>
      <point x="256" y="114"/>
      <point x="342" y="114" type="curve" smooth="yes"/>
      <point x="428" y="114"/>
      <point x="501" y="209"/>
      <point x="526" y="350" type="curve" smooth="yes"/>
      <point x="551" y="491"/>
      <point x="511" y="586"/>
      <point x="425" y="586" type="curve" smooth="yes"/>
      <point x="339" y="586"/>
      <point x="267" y="491"/>
    </contour>
    <contour>
      <point x="102" y="350" type="curve" smooth="yes"/>
      <point x="141" y="572"/>
      <point x="280" y="712"/>
      <point x="448" y="712" type="curve" smooth="yes"/>
      <point x="620" y="712"/>
      <point x="705" y="572"/>
      <point x="666" y="350" type="curve" smooth="yes"/>
      <point x="627" y="128"/>
      <point x="492" y="-12"/>
      <point x="320" y="-12" type="curve" smooth="yes"/>
      <point x="152" y="-12"/>
      <point x="63" y="128"/>
    </contour>
  </outline>
</glyph>
<glyph name="four" format="1">
  <advance width="663"/>
  <unicode hex="0034"/>
  <outline>
    <contour>
      <point x="39" y="129" type="line"/>
      <point x="176" y="237" type="line"/>
      <point x="483" y="237" type="line" smooth="yes"/>
      <point x="502" y="252" type="line" smooth="yes"/>
      <point x="669" y="252" type="line"/>
      <point x="648" y="129" type="line"/>
    </contour>
    <contour>
      <point x="191" y="164" type="line"/>
      <point x="39" y="129" type="line"/>
      <point x="539" y="700" type="line"/>
      <point x="638" y="700" type="line"/>
      <point x="515" y="0" type="line"/>
      <point x="366" y="0" type="line"/>
      <point x="395" y="165" type="line" smooth="yes"/>
      <point x="411" y="176" type="line" smooth="yes"/>
      <point x="463" y="471" type="line"/>
    </contour>
  </outline>
</glyph>
<glyph name="five" format="1">
  <advance width="620"/>
  <unicode hex="0035"/>
  <outline>
    <contour>
      <point x="620" y="226" type="curve" smooth="yes"/>
      <point x="591" y="62"/>
      <point x="442" y="-12"/>
      <point x="307" y="-12" type="curve" smooth="yes"/>
      <point x="178" y="-12"/>
      <point x="105" y="38"/>
      <point x="55" y="96" type="curve"/>
      <point x="143" y="208" type="line"/>
      <point x="182" y="156"/>
      <point x="245" y="120"/>
      <point x="305" y="120" type="curve" smooth="yes"/>
      <point x="394" y="120"/>
      <point x="454" y="162"/>
      <point x="467" y="238" type="curve" smooth="yes"/>
      <point x="480" y="314"/>
      <point x="421" y="355"/>
      <point x="347" y="355" type="curve" smooth="yes"/>
      <point x="289" y="355"/>
      <point x="224" y="345"/>
      <point x="146" y="305" type="curve"/>
      <point x="258" y="394" type="line"/>
      <point x="318" y="448"/>
      <point x="382" y="457"/>
      <point x="450" y="457" type="curve" smooth="yes"/>
      <point x="563" y="457"/>
      <point x="645" y="370"/>
    </contour>
    <contour>
      <point x="391" y="574" type="line"/>
      <point x="312" y="391" type="line"/>
      <point x="146" y="305" type="line"/>
      <point x="311" y="700" type="line"/>
      <point x="693" y="700" type="line"/>
      <point x="671" y="574" type="line"/>
    </contour>
  </outline>
</glyph>
<glyph name="six" format="1">
  <advance width="641"/>
  <unicode hex="0036"/>
  <outline>
    <contour>
      <point x="234" y="241" type="curve" smooth="yes"/>
      <point x="220" y="163"/>
      <point x="266" y="110"/>
      <point x="340" y="110" type="curve" smooth="yes"/>
      <point x="414" y="110"/>
      <point x="478" y="163"/>
      <point x="492" y="241" type="curve" smooth="yes"/>
      <point x="506" y="319"/>
      <point x="461" y="374"/>
      <point x="387" y="374" type="curve" smooth="yes"/>
      <point x="313" y="374"/>
      <point x="248" y="319"/>
    </contour>
    <contour>
      <point x="455" y="698" type="line"/>
      <point x="637" y="698" type="line"/>
      <point x="367" y="434" type="line"/>
      <point x="339" y="425" type="line"/>
      <point x="379" y="460"/>
      <point x="413" y="469"/>
      <point x="461" y="469" type="curve" smooth="yes"/>
      <point x="568" y="469"/>
      <point x="658" y="379"/>
      <point x="634" y="241" type="curve" smooth="yes"/>
      <point x="605" y="77"/>
      <point x="469" y="-14"/>
      <point x="319" y="-14" type="curve" smooth="yes"/>
      <point x="169" y="-14"/>
      <point x="63" y="77"/>
      <point x="92" y="241" type="curve" smooth="yes"/>
      <point x="104" y="311"/>
      <point x="145" y="370"/>
      <point x="194" y="420" type="curve" smooth="yes"/>
    </contour>
  </outline>
</glyph>
<glyph name="nine" format="1">
  <advance width="641"/>
  <unicode hex="0039"/>
  <outline>
    <contour>
      <point x="531" y="459" type="curve" smooth="yes"/>
      <point x="545" y="537"/>
      <point x="499" y="590"/>
      <point x="425" y="590" type="curve" smooth="yes"/>
      <point x="351" y="590"/>
      <point x="287" y="537"/>
      <point x="273" y="459" type="curve" smooth="yes"/>
      <point x="259" y="381"/>
      <point x="304" y="326"/>
      <point x="378" y="326" type="curve" smooth="yes"/>
      <point x="452" y="326"/>
      <point x="517" y="381"/>
    </contour>
    <contour>
      <point x="309" y="2" type="line"/>
      <point x="127" y="2" type="line"/>
      <point x="398" y="266" type="line"/>
      <point x="426" y="275" type="line"/>
      <point x="386" y="240"/>
      <point x="353" y="231"/>
      <point x="305" y="231" type="curve" smooth="yes"/>
      <point x="198" y="231"/>
      <point x="107" y="321"/>
      <point x="131" y="459" type="curve" smooth="yes"/>
      <point x="160" y="623"/>
      <point x="297" y="714"/>
      <point x="447" y="714" type="curve" smooth="yes"/>
      <point x="597" y="714"/>
      <point x="702" y="623"/>
      <point x="673" y="459" type="curve" smooth="yes"/>
      <point x="661" y="389"/>
      <point x="619" y="330"/>
      <point x="570" y="280" type="curve" smooth="yes"/>
    </contour>
  </outline>
</glyph>
<glyph name="semicolon" format="1">
  <advance width="374"/>
  <unicode hex="003B"/>
  <outline>
    <contour>
      <point x="196" y="431" type="curve" smooth="yes"/>
      <point x="204" y="475"/>
      <point x="245" y="512"/>
      <point x="293" y="512" type="curve" smooth="yes"/>
      <point x="341" y="512"/>
      <point x="370" y="475"/>
      <point x="362" y="431" type="curve" smooth="yes"/>
      <point x="354" y="387"/>
      <point x="313" y="350"/>
      <point x="265" y="350" type="curve" smooth="yes"/>
      <point x="217" y="350"/>
      <point x="188" y="387"/>
    </contour>
    <contour>
      <point x="163" y="110" type="line"/>
      <point x="288" y="78" type="line"/>
      <point x="123" y="-172" type="line"/>
      <point x="30" y="-149" type="line"/>
    </contour>
  </outline>
</glyph>
<glyph name="equal" format="1">
  <advance width="622"/>
  <unicode hex="003D"/>
  <outline>
    <contour>
      <point x="76" y="101" type="line"/>
      <point x="96" y="215" type="line"/>
      <point x="602" y="215" type="line"/>
      <point x="582" y="101" type="line"/>
    </contour>
    <contour>
      <point x="109" y="290" type="line"/>
      <point x="129" y="405" type="line"/>
      <point x="635" y="405" type="line"/>
      <point x="615" y="290" type="line"/>
    </contour>
  </outline>
</glyph>
<glyph name="greater" format="1">
  <advance width="640"/>
  <unicode hex="003E"/>
  <outline>
    <contour>
      <point x="430" y="258" type="line"/>
      <point x="134" y="392" type="line"/>
      <point x="157" y="520" type="line"/>
      <point x="629" y="304" type="line"/>
      <point x="614" y="220" type="line"/>
      <point x="66" y="4" type="line"/>
      <point x="88" y="132" type="line"/>
    </contour>
  </outline>
</glyph>
<glyph name="at" format="1">
  <advance width="770"/>
  <unicode hex="0040"/>
  <outline>
    <contour>
      <point x="357" y="320" type="curve" smooth="yes"/>
      <point x="349" y="272"/>
      <point x="364" y="246"/>
      <point x="400" y="246" type="curve" smooth="yes"/>
      <point x="439" y="246"/>
      <point x="495" y="286"/>
      <point x="509" y="366" type="curve" smooth="yes"/>
      <point x="518" y="415"/>
      <point x="497" y="445"/>
      <point x="463" y="445" type="curve" smooth="yes"/>
      <point x="419" y="445"/>
      <point x="369" y="388"/>
    </contour>
    <contour>
      <point x="247" y="314" type="curve" smooth="yes"/>
      <point x="272" y="453"/>
      <point x="381" y="530"/>
      <point x="461" y="530" type="curve" smooth="yes"/>
      <point x="537" y="530"/>
      <point x="561" y="456"/>
      <point x="546" y="372" type="curve" smooth="yes"/>
      <point x="521" y="233"/>
      <point x="442" y="156"/>
      <point x="356" y="156" type="curve" smooth="yes"/>
      <point x="278" y="156"/>
      <point x="230" y="215"/>
    </contour>
    <contour>
      <point x="74" y="320" type="curve" smooth="yes"/>
      <point x="113" y="544"/>
      <point x="314" y="722"/>
      <point x="542" y="722" type="curve" smooth="yes"/>
      <point x="748" y="722"/>
      <point x="850" y="554"/>
      <point x="821" y="390" type="curve" smooth="yes"/>
      <point x="790" y="212"/>
      <point x="665" y="132"/>
      <point x="577" y="132" type="curve" smooth="yes"/>
      <point x="507" y="132"/>
      <point x="469" y="192"/>
      <point x="491" y="258" type="curve"/>
      <point x="493" y="288" type="line"/>
      <point x="564" y="520" type="line"/>
      <point x="672" y="520" type="line"/>
      <point x="594" y="292" type="line" smooth="yes"/>
      <point x="592" y="285"/>
      <point x="589" y="274"/>
      <point x="588" y="266" type="curve" smooth="yes"/>
      <point x="584" y="242"/>
      <point x="587" y="228"/>
      <point x="608" y="228" type="curve" smooth="yes"/>
      <point x="634" y="228"/>
      <point x="696" y="272"/>
      <point x="717" y="390" type="curve" smooth="yes"/>
      <point x="740" y="518"/>
      <point x="680" y="632"/>
      <point x="526" y="632" type="curve" smooth="yes"/>
      <point x="346" y="632"/>
      <point x="209" y="498"/>
      <point x="178" y="320" type="curve" smooth="yes"/>
      <point x="151" y="166"/>
      <point x="216" y="63"/>
      <point x="374" y="63" type="curve" smooth="yes"/>
      <point x="444" y="63"/>
      <point x="518" y="70"/>
      <point x="585" y="108" type="curve"/>
      <point x="623" y="31" type="line"/>
      <point x="557" y="-3"/>
      <point x="467" y="-24"/>
      <point x="361" y="-24" type="curve" smooth="yes"/>
      <point x="139" y="-24"/>
      <point x="39" y="121"/>
    </contour>
  </outline>
</glyph>
<glyph name="D" format="1">
  <advance width="717"/>
  <unicode hex="0044"/>
  <outline>
    <contour>
      <point x="269" y="570" type="line"/>
      <point x="291" y="700" type="line"/>
      <point x="437" y="700" type="line" smooth="yes"/>
      <point x="659" y="700"/>
      <point x="782" y="564"/>
      <point x="744" y="350" type="curve"/>
      <point x="595" y="350" type="line"/>
      <point x="622" y="504"/>
      <point x="534" y="570"/>
      <point x="411" y="570" type="curve" smooth="yes"/>
    </contour>
    <contour>
      <point x="314" y="0" type="curve" smooth="yes"/>
      <point x="168" y="0" type="line"/>
      <point x="191" y="130" type="line"/>
      <point x="333" y="130" type="line" smooth="yes"/>
      <point x="456" y="130"/>
      <point x="568" y="196"/>
      <point x="595" y="350" type="curve"/>
      <point x="744" y="350" type="line"/>
      <point x="706" y="136"/>
      <point x="536" y="0"/>
    </contour>
    <contour>
      <point x="199" y="700" type="line"/>
      <point x="346" y="700" type="line"/>
      <point x="223" y="0" type="line"/>
      <point x="76" y="0" type="line"/>
    </contour>
  </outline>
</glyph>
<glyph name="T" format="1">
  <advance width="532"/>
  <unicode hex="0054"/>
  <outline>
    <contour>
      <point x="107" y="570" type="line"/>
      <point x="129" y="700" type="line"/>
      <point x="650" y="700" type="line"/>
      <point x="628" y="570" type="line"/>
      <point x="439" y="570" type="line"/>
      <point x="338" y="0" type="line"/>
      <point x="194" y="0" type="line"/>
      <point x="295" y="570" type="line"/>
    </contour>
  </outline>
</glyph>
<glyph name="U" format="1">
  <advance width="678"/>
  <unicode hex="0055"/>
  <outline>
    <contour>
      <point x="193" y="700" type="line"/>
      <point x="337" y="700" type="line"/>
      <point x="256" y="238" type="line" smooth="yes"/>
      <point x="242" y="160"/>
      <point x="276" y="107"/>
      <point x="358" y="107" type="curve" smooth="yes"/>
      <point x="440" y="107"/>
      <point x="492" y="160"/>
      <point x="506" y="238" type="curve" smooth="yes"/>
      <point x="587" y="700" type="line"/>
      <point x="731" y="700" type="line"/>
      <point x="649" y="230" type="line" smooth="yes"/>
      <point x="620" y="65"/>
      <point x="489" y="-24"/>
      <point x="335" y="-24" type="curve" smooth="yes"/>
      <point x="181" y="-24"/>
      <point x="82" y="65"/>
      <point x="111" y="230" type="curve" smooth="yes"/>
    </contour>
  </outline>
</glyph>
<glyph name="f" format="1">
  <advance width="326"/>
  <unicode hex="0066"/>
  <outline>
    <contour>
      <point x="105" y="460" type="line"/>
      <point x="395" y="460" type="line"/>
      <point x="376" y="350" type="line"/>
      <point x="86" y="350" type="line"/>
    </contour>
    <contour>
      <point x="414" y="649" type="line"/>
      <point x="404" y="669"/>
      <point x="390" y="675"/>
      <point x="372" y="675" type="curve" smooth="yes"/>
      <point x="342" y="675"/>
      <point x="320" y="652"/>
      <point x="311" y="600" type="curve" smooth="yes"/>
      <point x="205" y="0" type="line"/>
      <point x="78" y="0" type="line"/>
      <point x="189" y="630" type="line" smooth="yes"/>
      <point x="207" y="734"/>
      <point x="274" y="794"/>
      <point x="380" y="794" type="curve" smooth="yes"/>
      <point x="440" y="794"/>
      <point x="471" y="767"/>
      <point x="487" y="747" type="curve"/>
    </contour>
  </outline>
</glyph>
<glyph name="v" format="1">
  <advance width="501"/>
  <unicode hex="0076"/>
  <outline>
    <contour>
      <point x="79" y="460" type="line"/>
      <point x="219" y="460" type="line"/>
      <point x="283" y="184" type="line"/>
      <point x="445" y="460" type="line"/>
      <point x="584" y="460" type="line"/>
      <point x="243" y="-48" type="line"/>
    </contour>
  </outline>
</glyph>
<glyph name="currency" format="1">
  <advance width="577"/>
  <unicode hex="00A4"/>
  <outline>
    <contour>
      <point x="117" y="503" type="line"/>
      <point x="185" y="562" type="line"/>
      <point x="266" y="464" type="line"/>
      <point x="198" y="406" type="line"/>
    </contour>
    <contour>
      <point x="93" y="38" type="line"/>
      <point x="45" y="97" type="line"/>
      <point x="160" y="194" type="line"/>
      <point x="208" y="136" type="line"/>
    </contour>
    <contour>
      <point x="524" y="406" type="line"/>
      <point x="476" y="464" type="line"/>
      <point x="591" y="562" type="line"/>
      <point x="639" y="503" type="line"/>
    </contour>
    <contour>
      <point x="418" y="136" type="line"/>
      <point x="486" y="194" type="line"/>
      <point x="567" y="97" type="line"/>
      <point x="499" y="38" type="line"/>
    </contour>
    <contour>
      <point x="105" y="300" type="curve" smooth="yes"/>
      <point x="130" y="439"/>
      <point x="250" y="540"/>
      <point x="385" y="540" type="curve" smooth="yes"/>
      <point x="520" y="540"/>
      <point x="606" y="439"/>
      <point x="581" y="300" type="curve" smooth="yes"/>
      <point x="556" y="161"/>
      <point x="436" y="60"/>
      <point x="301" y="60" type="curve" smooth="yes"/>
      <point x="166" y="60"/>
      <point x="80" y="161"/>
    </contour>
    <contour>
      <point x="225" y="300" type="curve" smooth="yes"/>
      <point x="212" y="228"/>
      <point x="254" y="179"/>
      <point x="322" y="179" type="curve" smooth="yes"/>
      <point x="390" y="179"/>
      <point x="447" y="228"/>
      <point x="460" y="300" type="curve" smooth="yes"/>
      <point x="473" y="372"/>
      <point x="432" y="421"/>
      <point x="364" y="421" type="curve" smooth="yes"/>
      <point x="296" y="421"/>
      <point x="238" y="372"/>
    </contour>
  </outline>
</glyph>
<glyph name="brokenbar" format="1">
  <advance width="328"/>
  <unicode hex="00A6"/>
  <outline>
    <contour>
      <point x="223" y="695" type="line"/>
      <point x="353" y="695" type="line"/>
      <point x="307" y="438" type="line"/>
      <point x="177" y="438" type="line"/>
    </contour>
    <contour>
      <point x="276" y="262" type="line"/>
      <point x="231" y="5" type="line"/>
      <point x="101" y="5" type="line"/>
      <point x="146" y="262" type="line"/>
    </contour>
  </outline>
</glyph>
<glyph name="ordfeminine" format="1">
  <advance width="260"/>
  <unicode hex="00AA"/>
  <outline>
    <contour>
      <point x="177" y="530" type="curve" smooth="yes"/>
      <point x="174" y="512"/>
      <point x="184" y="500"/>
      <point x="210" y="500" type="curve" smooth="yes"/>
      <point x="238" y="500"/>
      <point x="268" y="514"/>
      <point x="275" y="552" type="curve"/>
      <point x="279" y="525" type="line"/>
      <point x="271" y="481"/>
      <point x="228" y="455"/>
      <point x="180" y="455" type="curve" smooth="yes"/>
      <point x="134" y="455"/>
      <point x="103" y="482"/>
      <point x="111" y="529" type="curve" smooth="yes"/>
      <point x="119" y="575"/>
      <point x="171" y="606"/>
      <point x="225" y="606" type="curve" smooth="yes"/>
      <point x="262" y="606"/>
      <point x="289" y="591"/>
      <point x="296" y="581" type="curve"/>
      <point x="290" y="547" type="line"/>
      <point x="274" y="561"/>
      <point x="257" y="568"/>
      <point x="230" y="568" type="curve" smooth="yes"/>
      <point x="202" y="568"/>
      <point x="181" y="551"/>
    </contour>
    <contour>
      <point x="174" y="632" type="curve"/>
      <point x="159" y="678" type="line"/>
      <point x="185" y="690"/>
      <point x="222" y="705"/>
      <point x="264" y="705" type="curve" smooth="yes"/>
      <point x="323" y="705"/>
      <point x="359" y="679"/>
      <point x="351" y="632" type="curve" smooth="yes"/>
      <point x="321" y="460" type="line"/>
      <point x="259" y="460" type="line"/>
      <point x="287" y="618" type="line" smooth="yes"/>
      <point x="291" y="639"/>
      <point x="276" y="652"/>
      <point x="251" y="652" type="curve" smooth="yes"/>
      <point x="218" y="652"/>
      <point x="186" y="640"/>
    </contour>
  </outline>
</glyph>
<glyph name="uni00B2" format="1">
  <advance width="389"/>
  <unicode hex="00B2"/>
  <outline>
    <contour>
      <point x="75" y="282" type="line"/>
      <point x="301" y="482" type="line" smooth="yes"/>
      <point x="339" y="516"/>
      <point x="361" y="541"/>
      <point x="367" y="575" type="curve" smooth="yes"/>
      <point x="372" y="605"/>
      <point x="358" y="635"/>
      <point x="316" y="635" type="curve" smooth="yes"/>
      <point x="272" y="635"/>
      <point x="238" y="600"/>
      <point x="229" y="550" type="curve"/>
      <point x="144" y="550" type="line"/>
      <point x="160" y="639"/>
      <point x="229" y="710"/>
      <point x="332" y="710" type="curve" smooth="yes"/>
      <point x="432" y="710"/>
      <point x="469" y="640"/>
      <point x="458" y="577" type="curve" smooth="yes"/>
      <point x="450" y="533"/>
      <point x="419" y="495"/>
      <point x="378" y="463" type="curve" smooth="yes"/>
      <point x="252" y="362" type="line"/>
      <point x="427" y="362" type="line"/>
      <point x="413" y="282" type="line"/>
    </contour>
  </outline>
</glyph>
<glyph name="paragraph" format="1">
  <advance width="643"/>
  <unicode hex="00B6"/>
  <outline>
    <contour>
      <point x="397" y="616" type="line"/>
      <point x="411" y="700" type="line"/>
      <point x="633" y="700" type="line"/>
      <point x="619" y="616" type="line"/>
    </contour>
    <contour>
      <point x="593" y="700" type="line"/>
      <point x="707" y="700" type="line"/>
      <point x="545" y="-220" type="line"/>
      <point x="431" y="-220" type="line"/>
    </contour>
    <contour>
      <point x="411" y="700" type="line"/>
      <point x="525" y="700" type="line"/>
      <point x="363" y="-220" type="line"/>
      <point x="249" y="-220" type="line"/>
    </contour>
    <contour>
      <point x="336" y="270" type="line"/>
      <point x="211" y="270"/>
      <point x="121" y="346"/>
      <point x="146" y="485" type="curve" smooth="yes"/>
      <point x="171" y="624"/>
      <point x="286" y="700"/>
      <point x="411" y="700" type="curve"/>
    </contour>
  </outline>
</glyph>
<glyph name="periodcentered" format="1">
  <advance width="315"/>
  <unicode hex="00B7"/>
  <outline>
    <contour>
      <point x="122" y="260" type="curve" smooth="yes"/>
      <point x="130" y="304"/>
      <point x="170" y="340"/>
      <point x="218" y="340" type="curve" smooth="yes"/>
      <point x="266" y="340"/>
      <point x="294" y="304"/>
      <point x="286" y="260" type="curve" smooth="yes"/>
      <point x="278" y="216"/>
      <point x="237" y="178"/>
      <point x="189" y="178" type="curve" smooth="yes"/>
      <point x="141" y="178"/>
      <point x="114" y="216"/>
    </contour>
  </outline>
</glyph>
<glyph name="ordmasculine" format="1">
  <advance width="278"/>
  <unicode hex="00BA"/>
  <outline>
    <contour>
      <point x="122" y="580" type="curve" smooth="yes"/>
      <point x="135" y="652"/>
      <point x="195" y="700"/>
      <point x="269" y="700" type="curve" smooth="yes"/>
      <point x="343" y="700"/>
      <point x="390" y="652"/>
      <point x="377" y="580" type="curve" smooth="yes"/>
      <point x="364" y="508"/>
      <point x="301" y="460"/>
      <point x="227" y="460" type="curve" smooth="yes"/>
      <point x="153" y="460"/>
      <point x="109" y="508"/>
    </contour>
    <contour>
      <point x="187" y="580" type="curve" smooth="yes"/>
      <point x="180" y="540"/>
      <point x="203" y="516"/>
      <point x="237" y="516" type="curve" smooth="yes"/>
      <point x="271" y="516"/>
      <point x="303" y="540"/>
      <point x="310" y="580" type="curve" smooth="yes"/>
      <point x="317" y="620"/>
      <point x="294" y="645"/>
      <point x="260" y="645" type="curve" smooth="yes"/>
      <point x="226" y="645"/>
      <point x="194" y="620"/>
    </contour>
  </outline>
</glyph>
<glyph name="questiondown" format="1">
  <advance width="606"/>
  <unicode hex="00BF"/>
  <outline>
    <contour>
      <point x="522" y="646" type="curve" smooth="yes"/>
      <point x="515" y="606"/>
      <point x="475" y="572"/>
      <point x="427" y="572" type="curve" smooth="yes"/>
      <point x="379" y="572"/>
      <point x="350" y="606"/>
      <point x="357" y="646" type="curve" smooth="yes"/>
      <point x="364" y="686"/>
      <point x="405" y="722"/>
      <point x="453" y="722" type="curve" smooth="yes"/>
      <point x="501" y="722"/>
      <point x="529" y="686"/>
    </contour>
    <contour>
      <point x="457" y="330" type="line"/>
      <point x="322" y="330" type="line"/>
      <point x="364" y="508" type="line"/>
      <point x="469" y="508" type="line"/>
    </contour>
    <contour>
      <point x="221" y="200" type="curve" smooth="yes"/>
      <point x="209" y="134"/>
      <point x="251" y="95"/>
      <point x="327" y="95" type="curve" smooth="yes"/>
      <point x="389" y="95"/>
      <point x="450" y="128"/>
      <point x="496" y="182" type="curve"/>
      <point x="574" y="109" type="line"/>
      <point x="496" y="31"/>
      <point x="416" y="-17"/>
      <point x="297" y="-17" type="curve" smooth="yes"/>
      <point x="167" y="-17"/>
      <point x="68" y="68"/>
      <point x="91" y="200" type="curve" smooth="yes"/>
      <point x="116" y="341"/>
      <point x="277" y="418"/>
      <point x="392" y="418" type="curve"/>
      <point x="426" y="330" type="line"/>
      <point x="306" y="330"/>
      <point x="231" y="258"/>
    </contour>
  </outline>
</glyph>
<glyph name="Aring" format="1">
  <advance width="712"/>
  <unicode hex="00C5"/>
  <outline>
    <contour>
      <point x="201" y="158" type="line"/>
      <point x="238" y="272" type="line"/>
      <point x="575" y="272" type="line"/>
      <point x="571" y="158" type="line"/>
    </contour>
    <contour>
      <point x="439" y="472" type="line"/>
      <point x="293" y="231" type="line"/>
      <point x="290" y="199" type="line"/>
      <point x="163" y="0" type="line"/>
      <point x="0" y="0" type="line"/>
      <point x="487" y="742" type="line"/>
      <point x="712" y="0" type="line"/>
      <point x="549" y="0" type="line"/>
      <point x="494" y="192" type="line"/>
      <point x="501" y="229" type="line"/>
    </contour>
    <contour>
      <point x="379" y="800" type="curve" smooth="yes"/>
      <point x="391" y="866"/>
      <point x="452" y="910"/>
      <point x="516" y="910" type="curve" smooth="yes"/>
      <point x="580" y="910"/>
      <point x="627" y="866"/>
      <point x="615" y="800" type="curve" smooth="yes"/>
      <point x="603" y="734"/>
      <point x="541" y="689"/>
      <point x="477" y="689" type="curve" smooth="yes"/>
      <point x="413" y="689"/>
      <point x="367" y="734"/>
    </contour>
    <contour>
      <point x="449" y="800" type="curve" smooth="yes"/>
      <point x="444" y="769"/>
      <point x="463" y="750"/>
      <point x="488" y="750" type="curve" smooth="yes"/>
      <point x="513" y="750"/>
      <point x="540" y="769"/>
      <point x="545" y="800" type="curve" smooth="yes"/>
      <point x="550" y="831"/>
      <point x="531" y="849"/>
      <point x="506" y="849" type="curve" smooth="yes"/>
      <point x="481" y="849"/>
      <point x="454" y="831"/>
    </contour>
  </outline>
</glyph>
<glyph name="Ecircumflex" format="1">
  <advance width="587"/>
  <unicode hex="00CA"/>
  <outline>
    <contour>
      <point x="168" y="0" type="line"/>
      <point x="190" y="122" type="line"/>
      <point x="544" y="122" type="line"/>
      <point x="522" y="0" type="line"/>
    </contour>
    <contour>
      <point x="270" y="578" type="line"/>
      <point x="291" y="700" type="line"/>
      <point x="645" y="700" type="line"/>
      <point x="624" y="578" type="line"/>
    </contour>
    <contour>
      <point x="223" y="312" type="line"/>
      <point x="244" y="431" type="line"/>
      <point x="578" y="431" type="line"/>
      <point x="557" y="312" type="line"/>
    </contour>
    <contour>
      <point x="199" y="700" type="line"/>
      <point x="339" y="700" type="line"/>
      <point x="216" y="0" type="line"/>
      <point x="76" y="0" type="line"/>
    </contour>
    <contour>
      <point x="459" y="878" type="line"/>
      <point x="332" y="784" type="line"/>
      <point x="289" y="824" type="line"/>
      <point x="474" y="964" type="line"/>
      <point x="609" y="824" type="line"/>
      <point x="552" y="784" type="line"/>
    </contour>
  </outline>
</glyph>
<glyph name="Oacute" format="1">
  <advance width="811"/>
  <unicode hex="00D3"/>
  <outline>
    <contour>
      <point x="250" y="350" type="curve" smooth="yes"/>
      <point x="226" y="216"/>
      <point x="299" y="120"/>
      <point x="427" y="120" type="curve" smooth="yes"/>
      <point x="555" y="120"/>
      <point x="662" y="216"/>
      <point x="686" y="350" type="curve" smooth="yes"/>
      <point x="710" y="484"/>
      <point x="639" y="580"/>
      <point x="508" y="580" type="curve" smooth="yes"/>
      <point x="380" y="580"/>
      <point x="274" y="484"/>
    </contour>
    <contour>
      <point x="98" y="350" type="curve" smooth="yes"/>
      <point x="135" y="562"/>
      <point x="321" y="714"/>
      <point x="532" y="714" type="curve" smooth="yes"/>
      <point x="744" y="714"/>
      <point x="875" y="562"/>
      <point x="838" y="350" type="curve" smooth="yes"/>
      <point x="801" y="138"/>
      <point x="618" y="-18"/>
      <point x="403" y="-18" type="curve" smooth="yes"/>
      <point x="188" y="-18"/>
      <point x="61" y="138"/>
    </contour>
    <contour>
      <point x="720" y="928" type="line"/>
      <point x="513" y="778" type="line"/>
      <point x="448" y="818" type="line"/>
      <point x="626" y="978" type="line"/>
    </contour>
  </outline>
</glyph>
<glyph name="Otilde" format="1">
  <advance width="811"/>
  <unicode hex="00D5"/>
  <outline>
    <contour>
      <point x="250" y="350" type="curve" smooth="yes"/>
      <point x="226" y="216"/>
      <point x="299" y="120"/>
      <point x="427" y="120" type="curve" smooth="yes"/>
      <point x="555" y="120"/>
      <point x="662" y="216"/>
      <point x="686" y="350" type="curve" smooth="yes"/>
      <point x="710" y="484"/>
      <point x="639" y="580"/>
      <point x="508" y="580" type="curve" smooth="yes"/>
      <point x="380" y="580"/>
      <point x="274" y="484"/>
    </contour>
    <contour>
      <point x="98" y="350" type="curve" smooth="yes"/>
      <point x="135" y="562"/>
      <point x="321" y="714"/>
      <point x="532" y="714" type="curve" smooth="yes"/>
      <point x="744" y="714"/>
      <point x="875" y="562"/>
      <point x="838" y="350" type="curve" smooth="yes"/>
      <point x="801" y="138"/>
      <point x="618" y="-18"/>
      <point x="403" y="-18" type="curve" smooth="yes"/>
      <point x="188" y="-18"/>
      <point x="61" y="138"/>
    </contour>
    <contour>
      <point x="391" y="832" type="line"/>
      <point x="410" y="881"/>
      <point x="464" y="914"/>
      <point x="509" y="914" type="curve" smooth="yes"/>
      <point x="574" y="914"/>
      <point x="571" y="866"/>
      <point x="625" y="866" type="curve" smooth="yes"/>
      <point x="644" y="866"/>
      <point x="663" y="882"/>
      <point x="689" y="914" type="curve"/>
      <point x="728" y="872" type="line"/>
      <point x="705" y="835"/>
      <point x="659" y="798"/>
      <point x="609" y="798" type="curve" smooth="yes"/>
      <point x="554" y="798"/>
      <point x="540" y="846"/>
      <point x="495" y="846" type="curve" smooth="yes"/>
      <point x="454" y="846"/>
      <point x="439" y="809"/>
      <point x="436" y="794" type="curve"/>
    </contour>
  </outline>
</glyph>
<glyph name="multiply" format="1">
  <advance width="596"/>
  <unicode hex="00D7"/>
  <outline>
    <contour>
      <point x="135" y="8" type="line"/>
      <point x="68" y="92" type="line"/>
      <point x="265" y="255" type="line"/>
      <point x="126" y="418" type="line"/>
      <point x="223" y="502" type="line"/>
      <point x="357" y="332" type="line"/>
      <point x="551" y="502" type="line"/>
      <point x="618" y="418" type="line"/>
      <point x="421" y="255" type="line"/>
      <point x="560" y="92" type="line"/>
      <point x="463" y="8" type="line"/>
      <point x="329" y="178" type="line"/>
    </contour>
  </outline>
</glyph>
<glyph name="Oslash" format="1">
  <advance width="790"/>
  <unicode hex="00D8"/>
  <outline>
    <contour>
      <point x="250" y="350" type="curve" smooth="yes"/>
      <point x="226" y="214"/>
      <point x="299" y="120"/>
      <point x="427" y="120" type="curve" smooth="yes"/>
      <point x="555" y="120"/>
      <point x="662" y="214"/>
      <point x="686" y="350" type="curve" smooth="yes"/>
      <point x="710" y="486"/>
      <point x="636" y="580"/>
      <point x="508" y="580" type="curve" smooth="yes"/>
      <point x="380" y="580"/>
      <point x="274" y="486"/>
    </contour>
    <contour>
      <point x="98" y="350" type="curve" smooth="yes"/>
      <point x="135" y="562"/>
      <point x="320" y="714"/>
      <point x="532" y="714" type="curve" smooth="yes"/>
      <point x="744" y="714"/>
      <point x="875" y="562"/>
      <point x="838" y="350" type="curve" smooth="yes"/>
      <point x="801" y="138"/>
      <point x="615" y="-18"/>
      <point x="403" y="-18" type="curve" smooth="yes"/>
      <point x="191" y="-18"/>
      <point x="61" y="138"/>
    </contour>
    <contour>
      <point x="828" y="754" type="line"/>
      <point x="886" y="706" type="line"/>
      <point x="104" y="-54" type="line"/>
      <point x="46" y="-6" type="line"/>
    </contour>
  </outline>
</glyph>
<glyph name="Udieresis" format="1">
  <advance width="678"/>
  <unicode hex="00DC"/>
  <outline>
    <contour>
      <point x="193" y="700" type="line"/>
      <point x="337" y="700" type="line"/>
      <point x="256" y="238" type="line" smooth="yes"/>
      <point x="242" y="160"/>
      <point x="276" y="107"/>
      <point x="358" y="107" type="curve" smooth="yes"/>
      <point x="440" y="107"/>
      <point x="492" y="160"/>
      <point x="506" y="238" type="curve" smooth="yes"/>
      <point x="587" y="700" type="line"/>
      <point x="731" y="700" type="line"/>
      <point x="649" y="230" type="line" smooth="yes"/>
      <point x="620" y="65"/>
      <point x="489" y="-24"/>
      <point x="335" y="-24" type="curve" smooth="yes"/>
      <point x="181" y="-24"/>
      <point x="82" y="65"/>
      <point x="111" y="230" type="curve" smooth="yes"/>
    </contour>
    <contour>
      <point x="532" y="855" type="curve" smooth="yes"/>
      <point x="540" y="899"/>
      <point x="581" y="936"/>
      <point x="629" y="936" type="curve" smooth="yes"/>
      <point x="677" y="936"/>
      <point x="705" y="899"/>
      <point x="697" y="855" type="curve" smooth="yes"/>
      <point x="689" y="811"/>
      <point x="648" y="774"/>
      <point x="600" y="774" type="curve" smooth="yes"/>
      <point x="552" y="774"/>
      <point x="524" y="811"/>
    </contour>
    <contour>
      <point x="283" y="855" type="curve" smooth="yes"/>
      <point x="291" y="899"/>
      <point x="332" y="936"/>
      <point x="380" y="936" type="curve" smooth="yes"/>
      <point x="428" y="936"/>
      <point x="457" y="899"/>
      <point x="449" y="855" type="curve" smooth="yes"/>
      <point x="441" y="811"/>
      <point x="399" y="774"/>
      <point x="351" y="774" type="curve" smooth="yes"/>
      <point x="303" y="774"/>
      <point x="275" y="811"/>
    </contour>
  </outline>
</glyph>
<glyph name="acircumflex" format="1">
  <advance width="526"/>
  <unicode hex="00E2"/>
  <outline>
    <contour>
      <point x="180" y="137" type="curve" smooth="yes"/>
      <point x="173" y="99"/>
      <point x="199" y="80"/>
      <point x="246" y="80" type="curve" smooth="yes"/>
      <point x="308" y="80"/>
      <point x="363" y="106"/>
      <point x="377" y="184" type="curve"/>
      <point x="384" y="130" type="line"/>
      <point x="368" y="41"/>
      <point x="283" y="-10"/>
      <point x="188" y="-10" type="curve" smooth="yes"/>
      <point x="88" y="-10"/>
      <point x="33" y="41"/>
      <point x="48" y="127" type="curve" smooth="yes"/>
      <point x="65" y="225"/>
      <point x="158" y="281"/>
      <point x="274" y="281" type="curve" smooth="yes"/>
      <point x="348" y="281"/>
      <point x="404" y="248"/>
      <point x="418" y="228" type="curve"/>
      <point x="407" y="164" type="line"/>
      <point x="374" y="192"/>
      <point x="340" y="206"/>
      <point x="286" y="206" type="curve" smooth="yes"/>
      <point x="226" y="206"/>
      <point x="187" y="179"/>
    </contour>
    <contour>
      <point x="174" y="328" type="curve"/>
      <point x="142" y="418" type="line"/>
      <point x="194" y="443"/>
      <point x="268" y="472"/>
      <point x="351" y="472" type="curve" smooth="yes"/>
      <point x="469" y="472"/>
      <point x="544" y="420"/>
      <point x="527" y="326" type="curve" smooth="yes"/>
      <point x="470" y="0" type="line"/>
      <point x="345" y="0" type="line"/>
      <point x="399" y="305" type="line" smooth="yes"/>
      <point x="406" y="346"/>
      <point x="374" y="370"/>
      <point x="324" y="370" type="curve" smooth="yes"/>
      <point x="258" y="370"/>
      <point x="198" y="342"/>
    </contour>
    <contour>
      <point x="377" y="620" type="line"/>
      <point x="265" y="532" type="line"/>
      <point x="186" y="594" type="line"/>
      <point x="397" y="734" type="line"/>
      <point x="559" y="594" type="line"/>
      <point x="459" y="532" type="line"/>
    </contour>
  </outline>
</glyph>
<glyph name="edieresis" format="1">
  <advance width="555"/>
  <unicode hex="00EB"/>
  <outline>
    <contour>
      <point x="132" y="202" type="line"/>
      <point x="146" y="281" type="line"/>
      <point x="553" y="281" type="line"/>
      <point x="556" y="202" type="line"/>
    </contour>
    <contour>
      <point x="427" y="246" type="line" smooth="yes"/>
      <point x="441" y="328"/>
      <point x="419" y="378"/>
      <point x="347" y="378" type="curve" smooth="yes"/>
      <point x="281" y="378"/>
      <point x="225" y="334"/>
      <point x="211" y="256" type="curve"/>
      <point x="205" y="230" type="line"/>
      <point x="188" y="132"/>
      <point x="230" y="90"/>
      <point x="298" y="90" type="curve" smooth="yes"/>
      <point x="356" y="90"/>
      <point x="402" y="113"/>
      <point x="433" y="155" type="curve"/>
      <point x="541" y="120" type="line"/>
      <point x="481" y="42"/>
      <point x="408" y="-10"/>
      <point x="280" y="-10" type="curve" smooth="yes"/>
      <point x="125" y="-10"/>
      <point x="49" y="91"/>
      <point x="74" y="230" type="curve" smooth="yes"/>
      <point x="77" y="247"/>
      <point x="80" y="263"/>
      <point x="86" y="279" type="curve" smooth="yes"/>
      <point x="125" y="392"/>
      <point x="224" y="470"/>
      <point x="365" y="470" type="curve" smooth="yes"/>
      <point x="517" y="470"/>
      <point x="590" y="381"/>
      <point x="564" y="236" type="curve" smooth="yes"/>
      <point x="563" y="228"/>
      <point x="560" y="216"/>
      <point x="556" y="202" type="curve"/>
      <point x="423" y="222" type="line"/>
    </contour>
    <contour>
      <point x="423" y="612" type="curve" smooth="yes"/>
      <point x="431" y="656"/>
      <point x="472" y="693"/>
      <point x="520" y="693" type="curve" smooth="yes"/>
      <point x="568" y="693"/>
      <point x="597" y="656"/>
      <point x="589" y="612" type="curve" smooth="yes"/>
      <point x="581" y="568"/>
      <point x="539" y="530"/>
      <point x="491" y="530" type="curve" smooth="yes"/>
      <point x="443" y="530"/>
      <point x="415" y="568"/>
    </contour>
    <contour>
      <point x="193" y="612" type="curve" smooth="yes"/>
      <point x="201" y="656"/>
      <point x="242" y="693"/>
      <point x="290" y="693" type="curve" smooth="yes"/>
      <point x="338" y="693"/>
      <point x="366" y="656"/>
      <point x="358" y="612" type="curve" smooth="yes"/>
      <point x="350" y="568"/>
      <point x="309" y="530"/>
      <point x="261" y="530" type="curve" smooth="yes"/>
      <point x="213" y="530"/>
      <point x="185" y="568"/>
    </contour>
  </outline>
</glyph>
<glyph name="icircumflex" format="1">
  <advance width="271"/>
  <unicode hex="00EE"/>
  <outline>
    <contour>
      <point x="153" y="460" type="line"/>
      <point x="279" y="460" type="line"/>
      <point x="198" y="0" type="line"/>
      <point x="72" y="0" type="line"/>
    </contour>
    <contour>
      <point x="246" y="624" type="line"/>
      <point x="133" y="536" type="line"/>
      <point x="54" y="598" type="line"/>
      <point x="266" y="738" type="line"/>
      <point x="427" y="598" type="line"/>
      <point x="327" y="536" type="line"/>
    </contour>
  </outline>
</glyph>
<glyph name="ntilde" format="1">
  <advance width="560"/>
  <unicode hex="00F1"/>
  <outline>
    <contour>
      <point x="276" y="460" type="line"/>
      <point x="195" y="0" type="line"/>
      <point x="64" y="0" type="line"/>
      <point x="145" y="460" type="line"/>
    </contour>
    <contour>
      <point x="411" y="280" type="line" smooth="yes"/>
      <point x="422" y="340"/>
      <point x="406" y="374"/>
      <point x="352" y="374" type="curve" smooth="yes"/>
      <point x="298" y="374"/>
      <point x="254" y="338"/>
      <point x="244" y="280" type="curve"/>
      <point x="212" y="276" type="line"/>
      <point x="231" y="385"/>
      <point x="309" y="470"/>
      <point x="417" y="470" type="curve" smooth="yes"/>
      <point x="525" y="470"/>
      <point x="568" y="408"/>
      <point x="548" y="294" type="curve" smooth="yes"/>
      <point x="496" y="0" type="line"/>
      <point x="362" y="0" type="line"/>
    </contour>
    <contour>
      <point x="198" y="588" type="line"/>
      <point x="217" y="637"/>
      <point x="270" y="678"/>
      <point x="328" y="678" type="curve" smooth="yes"/>
      <point x="394" y="678"/>
      <point x="395" y="628"/>
      <point x="451" y="628" type="curve" smooth="yes"/>
      <point x="475" y="628"/>
      <point x="498" y="648"/>
      <point x="524" y="680" type="curve"/>
      <point x="575" y="614" type="line"/>
      <point x="552" y="577"/>
      <point x="494" y="532"/>
      <point x="436" y="532" type="curve" smooth="yes"/>
      <point x="381" y="532"/>
      <point x="359" y="584"/>
      <point x="311" y="584" type="curve" smooth="yes"/>
      <point x="272" y="584"/>
      <point x="257" y="548"/>
      <point x="254" y="533" type="curve"/>
    </contour>
  </outline>
</glyph>
<glyph name="udieresis" format="1">
  <advance width="560"/>
  <unicode hex="00FC"/>
  <outline>
    <contour>
      <point x="366" y="0" type="line"/>
      <point x="447" y="460" type="line"/>
      <point x="577" y="460" type="line"/>
      <point x="496" y="0" type="line"/>
    </contour>
    <contour>
      <point x="231" y="180" type="line" smooth="yes"/>
      <point x="220" y="120"/>
      <point x="236" y="86"/>
      <point x="290" y="86" type="curve" smooth="yes"/>
      <point x="344" y="86"/>
      <point x="388" y="122"/>
      <point x="398" y="180" type="curve"/>
      <point x="430" y="184" type="line"/>
      <point x="411" y="75"/>
      <point x="332" y="-10"/>
      <point x="224" y="-10" type="curve" smooth="yes"/>
      <point x="116" y="-10"/>
      <point x="73" y="52"/>
      <point x="93" y="166" type="curve" smooth="yes"/>
      <point x="145" y="460" type="line"/>
      <point x="280" y="460" type="line"/>
    </contour>
    <contour>
      <point x="424" y="622" type="curve" smooth="yes"/>
      <point x="432" y="666"/>
      <point x="472" y="704"/>
      <point x="520" y="704" type="curve" smooth="yes"/>
      <point x="568" y="704"/>
      <point x="596" y="666"/>
      <point x="588" y="622" type="curve" smooth="yes"/>
      <point x="580" y="578"/>
      <point x="540" y="542"/>
      <point x="492" y="542" type="curve" smooth="yes"/>
      <point x="444" y="542"/>
      <point x="416" y="578"/>
    </contour>
    <contour>
      <point x="193" y="622" type="curve" smooth="yes"/>
      <point x="201" y="666"/>
      <point x="241" y="704"/>
      <point x="289" y="704" type="curve" smooth="yes"/>
      <point x="337" y="704"/>
      <point x="366" y="666"/>
      <point x="358" y="622" type="curve" smooth="yes"/>
      <point x="350" y="578"/>
      <point x="309" y="542"/>
      <point x="261" y="542" type="curve" smooth="yes"/>
      <point x="213" y="542"/>
      <point x="185" y="578"/>
    </contour>
  </outline>
</glyph>
<glyph name="ydieresis" format="1">
  <advance width="496"/>
  <unicode hex="00FF"/>
  <outline>
    <contour>
      <point x="584" y="460" type="line"/>
      <point x="164" y="-220" type="line"/>
      <point x="31" y="-220" type="line"/>
      <point x="194" y="46" type="line"/>
      <point x="74" y="460" type="line"/>
      <point x="220" y="460" type="line"/>
      <point x="302" y="93" type="line"/>
      <point x="239" y="96" type="line"/>
      <point x="449" y="460" type="line"/>
    </contour>
    <contour>
      <point x="389" y="612" type="curve" smooth="yes"/>
      <point x="397" y="656"/>
      <point x="438" y="693"/>
      <point x="486" y="693" type="curve" smooth="yes"/>
      <point x="534" y="693"/>
      <point x="562" y="656"/>
      <point x="554" y="612" type="curve" smooth="yes"/>
      <point x="546" y="568"/>
      <point x="505" y="530"/>
      <point x="457" y="530" type="curve" smooth="yes"/>
      <point x="409" y="530"/>
      <point x="381" y="568"/>
    </contour>
    <contour>
      <point x="158" y="612" type="curve" smooth="yes"/>
      <point x="166" y="656"/>
      <point x="208" y="693"/>
      <point x="256" y="693" type="curve" smooth="yes"/>
      <point x="304" y="693"/>
      <point x="332" y="656"/>
      <point x="324" y="612" type="curve" smooth="yes"/>
      <point x="316" y="568"/>
      <point x="275" y="530"/>
      <point x="227" y="530" type="curve" smooth="yes"/>
      <point x="179" y="530"/>
      <point x="150" y="568"/>
    </contour>
  </outline>
</glyph>
<glyph name="Amacron" format="1">
  <advance width="712"/>
  <unicode hex="0100"/>
  <outline>
    <contour>
      <point x="201" y="158" type="line"/>
      <point x="238" y="272" type="line"/>
      <point x="575" y="272" type="line"/>
      <point x="571" y="158" type="line"/>
    </contour>
    <contour>
      <point x="439" y="472" type="line"/>
      <point x="293" y="231" type="line"/>
      <point x="290" y="199" type="line"/>
      <point x="163" y="0" type="line"/>
      <point x="0" y="0" type="line"/>
      <point x="487" y="742" type="line"/>
      <point x="712" y="0" type="line"/>
      <point x="549" y="0" type="line"/>
      <point x="494" y="192" type="line"/>
      <point x="501" y="229" type="line"/>
    </contour>
    <contour>
      <point x="315" y="802" type="line"/>
      <point x="336" y="916" type="line"/>
      <point x="700" y="916" type="line"/>
      <point x="679" y="802" type="line"/>
    </contour>
  </outline>
</glyph>
<glyph name="aogonek" format="1">
  <advance width="526"/>
  <unicode hex="0105"/>
  <outline>
    <contour>
      <point x="180" y="137" type="curve" smooth="yes"/>
      <point x="173" y="99"/>
      <point x="199" y="80"/>
      <point x="246" y="80" type="curve" smooth="yes"/>
      <point x="308" y="80"/>
      <point x="363" y="106"/>
      <point x="377" y="184" type="curve"/>
      <point x="384" y="130" type="line"/>
      <point x="368" y="41"/>
      <point x="283" y="-10"/>
      <point x="188" y="-10" type="curve" smooth="yes"/>
      <point x="88" y="-10"/>
      <point x="33" y="41"/>
      <point x="48" y="127" type="curve" smooth="yes"/>
      <point x="65" y="225"/>
      <point x="158" y="281"/>
      <point x="274" y="281" type="curve" smooth="yes"/>
      <point x="348" y="281"/>
      <point x="404" y="248"/>
      <point x="418" y="228" type="curve"/>
      <point x="407" y="164" type="line"/>
      <point x="374" y="192"/>
      <point x="340" y="206"/>
      <point x="286" y="206" type="curve" smooth="yes"/>
      <point x="226" y="206"/>
      <point x="187" y="179"/>
    </contour>
    <contour>
      <point x="174" y="328" type="curve"/>
      <point x="142" y="418" type="line"/>
      <point x="194" y="443"/>
      <point x="268" y="472"/>
      <point x="351" y="472" type="curve" smooth="yes"/>
      <point x="469" y="472"/>
      <point x="544" y="420"/>
      <point x="527" y="326" type="curve" smooth="yes"/>
      <point x="470" y="0" type="line"/>
      <point x="345" y="0" type="line"/>
      <point x="399" y="305" type="line" smooth="yes"/>
      <point x="406" y="346"/>
      <point x="374" y="370"/>
      <point x="324" y="370" type="curve" smooth="yes"/>
      <point x="258" y="370"/>
      <point x="198" y="342"/>
    </contour>
    <contour>
      <point x="440" y="-116" type="curve"/>
      <point x="462" y="-178" type="line"/>
      <point x="443" y="-198"/>
      <point x="410" y="-218"/>
      <point x="358" y="-218" type="curve" smooth="yes"/>
      <point x="288" y="-218"/>
      <point x="246" y="-182"/>
      <point x="257" y="-118" type="curve"/>
      <point x="354" y="-94" type="line"/>
      <point x="349" y="-122"/>
      <point x="360" y="-136"/>
      <point x="386" y="-136" type="curve" smooth="yes"/>
      <point x="408" y="-136"/>
      <point x="424" y="-129"/>
    </contour>
    <contour>
      <point x="354" y="-94" type="curve"/>
      <point x="257" y="-118" type="line"/>
      <point x="268" y="-54"/>
      <point x="343" y="-10"/>
      <point x="419" y="26" type="curve"/>
      <point x="455" y="2" type="line"/>
      <point x="398" y="-24"/>
      <point x="360" y="-62"/>
    </contour>
  </outline>
</glyph>
<glyph name="Cacute" format="1">
  <advance width="695"/>
  <unicode hex="0106"/>
  <outline>
    <contour>
      <point x="254" y="350" type="curve" smooth="yes"/>
      <point x="230" y="212"/>
      <point x="318" y="124"/>
      <point x="438" y="124" type="curve" smooth="yes"/>
      <point x="537" y="124"/>
      <point x="612" y="166"/>
      <point x="669" y="220" type="curve"/>
      <point x="640" y="58" type="line"/>
      <point x="575" y="12"/>
      <point x="510" y="-14"/>
      <point x="408" y="-14" type="curve" smooth="yes"/>
      <point x="192" y="-14"/>
      <point x="60" y="134"/>
      <point x="98" y="350" type="curve" smooth="yes"/>
      <point x="136" y="566"/>
      <point x="320" y="714"/>
      <point x="536" y="714" type="curve" smooth="yes"/>
      <point x="638" y="714"/>
      <point x="694" y="688"/>
      <point x="743" y="642" type="curve"/>
      <point x="715" y="480" type="line"/>
      <point x="678" y="534"/>
      <point x="617" y="576"/>
      <point x="518" y="576" type="curve" smooth="yes"/>
      <point x="398" y="576"/>
      <point x="278" y="488"/>
    </contour>
    <contour>
      <point x="703" y="924" type="line"/>
      <point x="496" y="774" type="line"/>
      <point x="430" y="814" type="line"/>
      <point x="608" y="974" type="line"/>
    </contour>
  </outline>
</glyph>
<glyph name="cdotaccent" format="1">
  <advance width="488"/>
  <unicode hex="010B"/>
  <outline>
    <contour>
      <point x="205" y="230" type="curve" smooth="yes"/>
      <point x="191" y="150"/>
      <point x="239" y="96"/>
      <point x="313" y="96" type="curve" smooth="yes"/>
      <point x="373" y="96"/>
      <point x="435" y="126"/>
      <point x="469" y="170" type="curve"/>
      <point x="446" y="37" type="line"/>
      <point x="409" y="7"/>
      <point x="354" y="-10"/>
      <point x="286" y="-10" type="curve" smooth="yes"/>
      <point x="138" y="-10"/>
      <point x="46" y="86"/>
      <point x="71" y="230" type="curve" smooth="yes"/>
      <point x="96" y="374"/>
      <point x="223" y="470"/>
      <point x="371" y="470" type="curve" smooth="yes"/>
      <point x="439" y="470"/>
      <point x="487" y="450"/>
      <point x="514" y="424" type="curve"/>
      <point x="490" y="290" type="line"/>
      <point x="472" y="334"/>
      <point x="416" y="364"/>
      <point x="360" y="364" type="curve" smooth="yes"/>
      <point x="286" y="364"/>
      <point x="218" y="306"/>
    </contour>
    <contour>
      <point x="301" y="620" type="curve" smooth="yes"/>
      <point x="309" y="664"/>
      <point x="351" y="702"/>
      <point x="399" y="702" type="curve" smooth="yes"/>
      <point x="447" y="702"/>
      <point x="474" y="664"/>
      <point x="466" y="620" type="curve" smooth="yes"/>
      <point x="458" y="576"/>
      <point x="418" y="539"/>
      <point x="370" y="539" type="curve" smooth="yes"/>
      <point x="322" y="539"/>
      <point x="293" y="576"/>
    </contour>
  </outline>
</glyph>
<glyph name="Dcaron" format="1">
  <advance width="717"/>
  <unicode hex="010E"/>
  <outline>
    <contour>
      <point x="269" y="570" type="line"/>
      <point x="291" y="700" type="line"/>
      <point x="437" y="700" type="line" smooth="yes"/>
      <point x="659" y="700"/>
      <point x="782" y="564"/>
      <point x="744" y="350" type="curve"/>
      <point x="595" y="350" type="line"/>
      <point x="622" y="504"/>
      <point x="534" y="570"/>
      <point x="411" y="570" type="curve" smooth="yes"/>
    </contour>
    <contour>
      <point x="314" y="0" type="curve" smooth="yes"/>
      <point x="168" y="0" type="line"/>
      <point x="191" y="130" type="line"/>
      <point x="333" y="130" type="line" smooth="yes"/>
      <point x="456" y="130"/>
      <point x="568" y="196"/>
      <point x="595" y="350" type="curve"/>
      <point x="744" y="350" type="line"/>
      <point x="706" y="136"/>
      <point x="536" y="0"/>
    </contour>
    <contour>
      <point x="199" y="700" type="line"/>
      <point x="346" y="700" type="line"/>
      <point x="223" y="0" type="line"/>
      <point x="76" y="0" type="line"/>
    </contour>
    <contour>
      <point x="502" y="888" type="line"/>
      <point x="614" y="976" type="line"/>
      <point x="691" y="914" type="line"/>
      <point x="481" y="774" type="line"/>
      <point x="319" y="914" type="line"/>
      <point x="420" y="976" type="line"/>
    </contour>
  </outline>
</glyph>
<glyph name="Edotaccent" format="1">
  <advance width="587"/>
  <unicode hex="0116"/>
  <outline>
    <contour>
      <point x="168" y="0" type="line"/>
      <point x="190" y="122" type="line"/>
      <point x="544" y="122" type="line"/>
      <point x="522" y="0" type="line"/>
    </contour>
    <contour>
      <point x="270" y="578" type="line"/>
      <point x="291" y="700" type="line"/>
      <point x="645" y="700" type="line"/>
      <point x="624" y="578" type="line"/>
    </contour>
    <contour>
      <point x="223" y="312" type="line"/>
      <point x="244" y="431" type="line"/>
      <point x="578" y="431" type="line"/>
      <point x="557" y="312" type="line"/>
    </contour>
    <contour>
      <point x="199" y="700" type="line"/>
      <point x="339" y="700" type="line"/>
      <point x="216" y="0" type="line"/>
      <point x="76" y="0" type="line"/>
    </contour>
    <contour>
      <point x="367" y="855" type="curve" smooth="yes"/>
      <point x="375" y="899"/>
      <point x="415" y="936"/>
      <point x="463" y="936" type="curve" smooth="yes"/>
      <point x="511" y="936"/>
      <point x="539" y="899"/>
      <point x="531" y="855" type="curve" smooth="yes"/>
      <point x="523" y="811"/>
      <point x="482" y="774"/>
      <point x="434" y="774" type="curve" smooth="yes"/>
      <point x="386" y="774"/>
      <point x="359" y="811"/>
    </contour>
  </outline>
</glyph>
<glyph name="Ecaron" format="1">
  <advance width="587"/>
  <unicode hex="011A"/>
  <outline>
    <contour>
      <point x="168" y="0" type="line"/>
      <point x="190" y="122" type="line"/>
      <point x="544" y="122" type="line"/>
      <point x="522" y="0" type="line"/>
    </contour>
    <contour>
      <point x="270" y="578" type="line"/>
      <point x="291" y="700" type="line"/>
      <point x="645" y="700" type="line"/>
      <point x="624" y="578" type="line"/>
    </contour>
    <contour>
      <point x="223" y="312" type="line"/>
      <point x="244" y="431" type="line"/>
      <point x="578" y="431" type="line"/>
      <point x="557" y="312" type="line"/>
    </contour>
    <contour>
      <point x="199" y="700" type="line"/>
      <point x="339" y="700" type="line"/>
      <point x="216" y="0" type="line"/>
      <point x="76" y="0" type="line"/>
    </contour>
    <contour>
      <point x="455" y="888" type="line"/>
      <point x="568" y="976" type="line"/>
      <point x="646" y="914" type="line"/>
      <point x="434" y="774" type="line"/>
      <point x="273" y="914" type="line"/>
      <point x="374" y="976" type="line"/>
    </contour>
  </outline>
</glyph>
<glyph name="Gdotaccent" format="1">
  <advance width="802"/>
  <unicode hex="0120"/>
  <outline>
    <contour>
      <point x="462" y="260" type="line"/>
      <point x="482" y="374" type="line"/>
      <point x="828" y="374" type="line"/>
      <point x="728" y="260" type="line"/>
    </contour>
    <contour>
      <point x="828" y="374" type="line"/>
      <point x="798" y="160"/>
      <point x="639" y="-18"/>
      <point x="407" y="-18" type="curve" smooth="yes"/>
      <point x="189" y="-18"/>
      <point x="60" y="132"/>
      <point x="98" y="350" type="curve" smooth="yes"/>
      <point x="136" y="568"/>
      <point x="322" y="714"/>
      <point x="540" y="714" type="curve" smooth="yes"/>
      <point x="682" y="714"/>
      <point x="774" y="651"/>
      <point x="821" y="554" type="curve"/>
      <point x="685" y="482" type="line"/>
      <point x="660" y="542"/>
      <point x="607" y="585"/>
      <point x="517" y="585" type="curve" smooth="yes"/>
      <point x="391" y="585"/>
      <point x="274" y="496"/>
      <point x="248" y="350" type="curve" smooth="yes"/>
      <point x="222" y="204"/>
      <point x="303" y="110"/>
      <point x="433" y="110" type="curve" smooth="yes"/>
      <point x="593" y="110"/>
      <point x="671" y="234"/>
      <point x="695" y="370" type="curve"/>
    </contour>
    <contour>
      <point x="483" y="855" type="curve" smooth="yes"/>
      <point x="491" y="899"/>
      <point x="531" y="936"/>
      <point x="579" y="936" type="curve" smooth="yes"/>
      <point x="627" y="936"/>
      <point x="657" y="899"/>
      <point x="649" y="855" type="curve" smooth="yes"/>
      <point x="641" y="811"/>
      <point x="598" y="774"/>
      <point x="550" y="774" type="curve" smooth="yes"/>
      <point x="502" y="774"/>
      <point x="475" y="811"/>
    </contour>
  </outline>
</glyph>
<glyph name="hcircumflex" format="1">
  <advance width="555"/>
  <unicode hex="0125"/>
  <outline>
    <contour>
      <point x="333" y="780" type="line"/>
      <point x="195" y="0" type="line"/>
      <point x="64" y="0" type="line"/>
      <point x="202" y="780" type="line"/>
    </contour>
    <contour>
      <point x="411" y="280" type="line" smooth="yes"/>
      <point x="422" y="340"/>
      <point x="406" y="374"/>
      <point x="352" y="374" type="curve" smooth="yes"/>
      <point x="298" y="374"/>
      <point x="254" y="338"/>
      <point x="244" y="280" type="curve"/>
      <point x="212" y="280" type="line"/>
      <point x="231" y="389"/>
      <point x="310" y="475"/>
      <point x="418" y="475" type="curve" smooth="yes"/>
      <point x="526" y="475"/>
      <point x="565" y="412"/>
      <point x="545" y="298" type="curve" smooth="yes"/>
      <point x="492" y="0" type="line"/>
      <point x="362" y="0" type="line"/>
    </contour>
    <contour>
      <point x="363" y="928" type="line"/>
      <point x="250" y="840" type="line"/>
      <point x="171" y="902" type="line"/>
      <point x="383" y="1042" type="line"/>
      <point x="545" y="902" type="line"/>
      <point x="444" y="840" type="line"/>
    </contour>
  </outline>
</glyph>
<glyph name="Imacron" format="1">
  <advance width="297"/>
  <unicode hex="012A"/>
  <outline>
    <contour>
      <point x="199" y="700" type="line"/>
      <point x="345" y="700" type="line"/>
      <point x="222" y="0" type="line"/>
      <point x="76" y="0" type="line"/>
    </contour>
    <contour>
      <point x="102" y="774" type="line"/>
      <point x="123" y="889" type="line"/>
      <point x="489" y="889" type="line"/>
      <point x="468" y="774" type="line"/>
    </contour>
  </outline>
</glyph>
<glyph name="Iogonek" format="1">
  <advance width="297"/>
  <unicode hex="012E"/>
  <outline>
    <contour>
      <point x="199" y="700" type="line"/>
      <point x="345" y="700" type="line"/>
      <point x="222" y="0" type="line"/>
      <point x="76" y="0" type="line"/>
    </contour>
    <contour>
      <point x="186" y="-125" type="curve"/>
      <point x="208" y="-188" type="line"/>
      <point x="189" y="-208"/>
      <point x="157" y="-228"/>
      <point x="105" y="-228" type="curve" smooth="yes"/>
      <point x="35" y="-228"/>
      <point x="-8" y="-192"/>
      <point x="3" y="-128" type="curve"/>
      <point x="100" y="-104" type="line"/>
      <point x="95" y="-132"/>
      <point x="106" y="-145"/>
      <point x="132" y="-145" type="curve" smooth="yes"/>
      <point x="154" y="-145"/>
      <point x="170" y="-138"/>
    </contour>
    <contour>
      <point x="100" y="-104" type="curve"/>
      <point x="3" y="-128" type="line"/>
      <point x="14" y="-64"/>
      <point x="89" y="-20"/>
      <point x="165" y="16" type="curve"/>
      <point x="202" y="-8" type="line"/>
      <point x="145" y="-34"/>
      <point x="106" y="-72"/>
    </contour>
  </outline>
</glyph>
<glyph name="dotlessi" format="1">
  <advance width="271"/>
  <unicode hex="0131"/>
  <outline>
    <contour>
      <point x="153" y="460" type="line"/>
      <point x="279" y="460" type="line"/>
      <point x="198" y="0" type="line"/>
      <point x="72" y="0" type="line"/>
    </contour>
  </outline>
</glyph>
<glyph name="ldot" format="1">
  <advance width="444"/>
  <unicode hex="0140"/>
  <outline>
    <contour>
      <point x="202" y="780" type="line"/>
      <point x="333" y="780" type="line"/>
      <point x="195" y="0" type="line"/>
      <point x="64" y="0" type="line"/>
    </contour>
    <contour>
      <point x="313" y="410" type="curve" smooth="yes"/>
      <point x="321" y="454"/>
      <point x="363" y="492"/>
      <point x="411" y="492" type="curve" smooth="yes"/>
      <point x="459" y="492"/>
      <point x="487" y="454"/>
      <point x="479" y="410" type="curve" smooth="yes"/>
      <point x="471" y="366"/>
      <point x="430" y="329"/>
      <point x="382" y="329" type="curve" smooth="yes"/>
      <point x="334" y="329"/>
      <point x="305" y="366"/>
    </contour>
  </outline>
</glyph>
<glyph name="ncaron" format="1">
  <advance width="560"/>
  <unicode hex="0148"/>
  <outline>
    <contour>
      <point x="276" y="460" type="line"/>
      <point x="195" y="0" type="line"/>
      <point x="64" y="0" type="line"/>
      <point x="145" y="460" type="line"/>
    </contour>
    <contour>
      <point x="411" y="280" type="line" smooth="yes"/>
      <point x="422" y="340"/>
      <point x="406" y="374"/>
      <point x="352" y="374" type="curve" smooth="yes"/>
      <point x="298" y="374"/>
      <point x="254" y="338"/>
      <point x="244" y="280" type="curve"/>
      <point x="212" y="276" type="line"/>
      <point x="231" y="385"/>
      <point x="309" y="470"/>
      <point x="417" y="470" type="curve" smooth="yes"/>
      <point x="525" y="470"/>
      <point x="568" y="408"/>
      <point x="548" y="294" type="curve" smooth="yes"/>
      <point x="496" y="0" type="line"/>
      <point x="362" y="0" type="line"/>
    </contour>
    <contour>
      <point x="394" y="644" type="line"/>
      <point x="505" y="732" type="line"/>
      <point x="584" y="670" type="line"/>
      <point x="373" y="530" type="line"/>
      <point x="212" y="670" type="line"/>
      <point x="312" y="732" type="line"/>
    </contour>
  </outline>
</glyph>
<glyph name="racute" format="1">
  <advance width="390"/>
  <unicode hex="0155"/>
  <outline>
    <contour>
      <point x="273" y="460" type="line"/>
      <point x="192" y="0" type="line"/>
      <point x="64" y="0" type="line"/>
      <point x="145" y="460" type="line"/>
    </contour>
    <contour>
      <point x="384" y="324" type="line"/>
      <point x="369" y="340"/>
      <point x="355" y="350"/>
      <point x="329" y="350" type="curve" smooth="yes"/>
      <point x="280" y="350"/>
      <point x="247" y="309"/>
      <point x="235" y="243" type="curve"/>
      <point x="205" y="280" type="line"/>
      <point x="224" y="389"/>
      <point x="311" y="470"/>
      <point x="385" y="470" type="curve" smooth="yes"/>
      <point x="418" y="470"/>
      <point x="449" y="458"/>
      <point x="463" y="434" type="curve"/>
    </contour>
    <contour>
      <point x="496" y="680" type="line"/>
      <point x="289" y="530" type="line"/>
      <point x="225" y="570" type="line"/>
      <point x="403" y="730" type="line"/>
    </contour>
  </outline>
</glyph>
<glyph name="Ydieresis" format="1">
  <advance width="630"/>
  <unicode hex="0178"/>
  <outline>
    <contour>
      <point x="305" y="360" type="line"/>
      <point x="451" y="360" type="line"/>
      <point x="388" y="0" type="line"/>
      <point x="242" y="0" type="line"/>
    </contour>
    <contour>
      <point x="587" y="700" type="line"/>
      <point x="753" y="700" type="line"/>
      <point x="344" y="166" type="line"/>
      <point x="123" y="700" type="line"/>
      <point x="289" y="700" type="line"/>
      <point x="389" y="418" type="line"/>
    </contour>
    <contour>
      <point x="508" y="855" type="curve" smooth="yes"/>
      <point x="516" y="899"/>
      <point x="556" y="936"/>
      <point x="604" y="936" type="curve" smooth="yes"/>
      <point x="652" y="936"/>
      <point x="681" y="899"/>
      <point x="673" y="855" type="curve" smooth="yes"/>
      <point x="665" y="811"/>
      <point x="623" y="774"/>
      <point x="575" y="774" type="curve" smooth="yes"/>
      <point x="527" y="774"/>
      <point x="500" y="811"/>
    </contour>
    <contour>
      <point x="260" y="855" type="curve" smooth="yes"/>
      <point x="268" y="899"/>
      <point x="308" y="936"/>
      <point x="356" y="936" type="curve" smooth="yes"/>
      <point x="404" y="936"/>
      <point x="433" y="899"/>
      <point x="425" y="855" type="curve" smooth="yes"/>
      <point x="417" y="811"/>
      <point x="375" y="774"/>
      <point x="327" y="774" type="curve" smooth="yes"/>
      <point x="279" y="774"/>
      <point x="252" y="811"/>
    </contour>
  </outline>
</glyph>
<glyph name="Zcaron" format="1">
  <advance width="597"/>
  <unicode hex="017D"/>
  <outline>
    <contour>
      <point x="151" y="570" type="line"/>
      <point x="173" y="700" type="line"/>
      <point x="705" y="700" type="line"/>
      <point x="262" y="126" type="line"/>
      <point x="572" y="126" type="line"/>
      <point x="550" y="0" type="line"/>
      <point x="10" y="0" type="line"/>
      <point x="451" y="570" type="line"/>
    </contour>
    <contour>
      <point x="473" y="888" type="line"/>
      <point x="584" y="976" type="line"/>
      <point x="663" y="914" type="line"/>
      <point x="452" y="774" type="line"/>
      <point x="291" y="914" type="line"/>
      <point x="391" y="976" type="line"/>
    </contour>
  </outline>
</glyph>
<glyph name="uni0218" format="1">
  <advance width="602"/>
  <unicode hex="0218"/>
  <outline>
    <contour>
      <point x="183" y="244" type="line"/>
      <point x="213" y="156"/>
      <point x="255" y="108"/>
      <point x="333" y="108" type="curve" smooth="yes"/>
      <point x="395" y="108"/>
      <point x="435" y="138"/>
      <point x="444" y="190" type="curve" smooth="yes"/>
      <point x="456" y="258"/>
      <point x="390" y="282"/>
      <point x="315" y="313" type="curve" smooth="yes"/>
      <point x="250" y="339"/>
      <point x="143" y="393"/>
      <point x="166" y="524" type="curve" smooth="yes"/>
      <point x="186" y="638"/>
      <point x="298" y="714"/>
      <point x="434" y="714" type="curve" smooth="yes"/>
      <point x="573" y="714"/>
      <point x="636" y="633"/>
      <point x="651" y="562" type="curve"/>
      <point x="529" y="496" type="line"/>
      <point x="509" y="550"/>
      <point x="479" y="589"/>
      <point x="418" y="589" type="curve" smooth="yes"/>
      <point x="362" y="589"/>
      <point x="322" y="562"/>
      <point x="314" y="518" type="curve" smooth="yes"/>
      <point x="304" y="464"/>
      <point x="377" y="438"/>
      <point x="456" y="408" type="curve" smooth="yes"/>
      <point x="540" y="376"/>
      <point x="617" y="316"/>
      <point x="595" y="194" type="curve" smooth="yes"/>
      <point x="571" y="59"/>
      <point x="463" y="-18"/>
      <point x="307" y="-18" type="curve" smooth="yes"/>
      <point x="183" y="-18"/>
      <point x="90" y="57"/>
      <point x="66" y="172" type="curve"/>
    </contour>
    <contour>
      <point x="260" y="-70" type="line"/>
      <point x="384" y="-102" type="line"/>
      <point x="219" y="-352" type="line"/>
      <point x="126" y="-329" type="line"/>
    </contour>
  </outline>
</glyph>
<glyph name="uni0219" format="1">
  <advance width="440"/>
  <unicode hex="0219"/>
  <outline>
    <contour>
      <point x="116" y="170" type="line"/>
      <point x="157" y="111"/>
      <point x="204" y="88"/>
      <point x="244" y="88" type="curve" smooth="yes"/>
      <point x="278" y="88"/>
      <point x="300" y="98"/>
      <point x="305" y="126" type="curve" smooth="yes"/>
      <point x="312" y="165"/>
      <point x="252" y="179"/>
      <point x="202" y="202" type="curve" smooth="yes"/>
      <point x="146" y="229"/>
      <point x="92" y="261"/>
      <point x="106" y="340" type="curve" smooth="yes"/>
      <point x="121" y="424"/>
      <point x="209" y="470"/>
      <point x="301" y="470" type="curve" smooth="yes"/>
      <point x="379" y="470"/>
      <point x="443" y="438"/>
      <point x="476" y="396" type="curve"/>
      <point x="404" y="314" type="line"/>
      <point x="378" y="348"/>
      <point x="328" y="370"/>
      <point x="291" y="370" type="curve" smooth="yes"/>
      <point x="257" y="370"/>
      <point x="234" y="361"/>
      <point x="230" y="336" type="curve" smooth="yes"/>
      <point x="225" y="306"/>
      <point x="283" y="290"/>
      <point x="335" y="268" type="curve" smooth="yes"/>
      <point x="395" y="242"/>
      <point x="450" y="206"/>
      <point x="437" y="130" type="curve" smooth="yes"/>
      <point x="419" y="26"/>
      <point x="345" y="-17"/>
      <point x="237" y="-17" type="curve" smooth="yes"/>
      <point x="143" y="-17"/>
      <point x="70" y="28"/>
      <point x="36" y="90" type="curve"/>
    </contour>
    <contour>
      <point x="190" y="-68" type="line"/>
      <point x="314" y="-100" type="line"/>
      <point x="148" y="-350" type="line"/>
      <point x="56" y="-327" type="line"/>
    </contour>
  </outline>
</glyph>
<glyph name="uni0237" format="1">
  <advance width="264"/>
  <unicode hex="0237"/>
  <outline>
    <contour>
      <point x="-45" y="-88" type="line"/>
      <point x="-35" y="-108"/>
      <point x="-20" y="-114"/>
      <point x="-2" y="-114" type="curve" smooth="yes"/>
      <point x="28" y="-114"/>
      <point x="50" y="-91"/>
      <point x="59" y="-39" type="curve" smooth="yes"/>
      <point x="147" y="460" type="line"/>
      <point x="274" y="460" type="line"/>
      <point x="181" y="-68" type="line" smooth="yes"/>
      <point x="163" y="-172"/>
      <point x="97" y="-234"/>
      <point x="-9" y="-234" type="curve" smooth="yes"/>
      <point x="-69" y="-234"/>
      <point x="-101" y="-206"/>
      <point x="-117" y="-186" type="curve"/>
    </contour>
  </outline>
</glyph>
<glyph name="circumflex" format="1">
  <advance width="480"/>
  <unicode hex="02C6"/>
  <outline>
    <contour>
      <point x="352" y="634" type="line"/>
      <point x="240" y="546" type="line"/>
      <point x="161" y="608" type="line"/>
      <point x="372" y="748" type="line"/>
      <point x="533" y="608" type="line"/>
      <point x="432" y="546" type="line"/>
    </contour>
  </outline>
</glyph>
<glyph name="breve" format="1">
  <advance width="546"/>
  <unicode hex="02D8"/>
  <outline>
    <contour>
      <point x="260" y="850" type="curve"/>
      <point x="352" y="850" type="line"/>
      <point x="346" y="817"/>
      <point x="364" y="786"/>
      <point x="412" y="786" type="curve" smooth="yes"/>
      <point x="460" y="786"/>
      <point x="488" y="817"/>
      <point x="494" y="850" type="curve"/>
      <point x="586" y="850" type="line"/>
      <point x="572" y="772"/>
      <point x="502" y="706"/>
      <point x="397" y="706" type="curve" smooth="yes"/>
      <point x="292" y="706"/>
      <point x="246" y="772"/>
    </contour>
  </outline>
</glyph>
<glyph name="ring" format="1">
  <advance width="313"/>
  <unicode hex="02DA"/>
  <outline>
    <contour>
      <point x="174" y="774" type="curve" smooth="yes"/>
      <point x="186" y="840"/>
      <point x="248" y="885"/>
      <point x="312" y="885" type="curve" smooth="yes"/>
      <point x="376" y="885"/>
      <point x="422" y="840"/>
      <point x="410" y="774" type="curve" smooth="yes"/>
      <point x="398" y="708"/>
      <point x="337" y="663"/>
      <point x="273" y="663" type="curve" smooth="yes"/>
      <point x="209" y="663"/>
      <point x="162" y="708"/>
    </contour>
    <contour>
      <point x="245" y="774" type="curve" smooth="yes"/>
      <point x="240" y="743"/>
      <point x="259" y="725"/>
      <point x="284" y="725" type="curve" smooth="yes"/>
      <point x="309" y="725"/>
      <point x="335" y="743"/>
      <point x="340" y="774" type="curve" smooth="yes"/>
      <point x="345" y="805"/>
      <point x="326" y="824"/>
      <point x="301" y="824" type="curve" smooth="yes"/>
      <point x="276" y="824"/>
      <point x="250" y="805"/>
    </contour>
  </outline>
</glyph>
<glyph name="emdash" format="1">
  <advance width="925"/>
  <unicode hex="2014"/>
  <outline>
    <contour>
      <point x="102" y="180" type="line"/>
      <point x="122" y="294" type="line"/>
      <point x="905" y="294" type="line"/>
      <point x="885" y="180" type="line"/>
    </contour>
  </outline>
</glyph>
<glyph name="quoteright" format="1">
  <advance width="314"/>
  <unicode hex="2019"/>
  <outline>
    <contour>
      <point x="229" y="700" type="line"/>
      <point x="368" y="700" type="line"/>
      <point x="222" y="452" type="line"/>
      <point x="130" y="452" type="line"/>
    </contour>
  </outline>
</glyph>
<glyph name="quotedblright" format="1">
  <advance width="536"/>
  <unicode hex="201D"/>
  <outline>
    <contour>
      <point x="229" y="700" type="line"/>
      <point x="368" y="700" type="line"/>
      <point x="222" y="452" type="line"/>
      <point x="130" y="452" type="line"/>
    </contour>
    <contour>
      <point x="451" y="700" type="line"/>
      <point x="589" y="700" type="line"/>
      <point x="444" y="452" type="line"/>
      <point x="352" y="452" type="line"/>
    </contour>
  </outline>
</glyph>
<glyph name="daggerdbl" format="1">
  <advance width="613"/>
  <unicode hex="2021"/>
  <outline>
    <contour>
      <point x="116" y="146" type="line"/>
      <point x="550" y="146" type="line"/>
      <point x="530" y="36" type="line"/>
      <point x="96" y="36" type="line"/>
    </contour>
    <contour>
      <point x="185" y="540" type="line"/>
      <point x="619" y="540" type="line"/>
      <point x="600" y="430" type="line"/>
      <point x="166" y="430" type="line"/>
    </contour>
    <contour>
      <point x="368" y="700" type="line"/>
      <point x="492" y="700" type="line"/>
      <point x="343" y="-150" type="line"/>
      <point x="219" y="-150" type="line"/>
    </contour>
  </outline>
</glyph>
<glyph name="guilsinglright" format="1">
  <advance width="350"/>
  <unicode hex="203A"/>
  <outline>
    <contour>
      <point x="274" y="275" type="line"/>
      <point x="363" y="255" type="line"/>
      <point x="139" y="6" type="line"/>
      <point x="67" y="65" type="line"/>
    </contour>
    <contour>
      <point x="363" y="255" type="line"/>
      <point x="266" y="225" type="line"/>
      <point x="134" y="445" type="line"/>
      <point x="227" y="504" type="line"/>
    </contour>
  </outline>
</glyph>
<glyph name="uni2077" format="1">
  <advance width="371"/>
  <unicode hex="2077"/>
  <outline>
    <contour>
      <point x="134" y="619" type="line"/>
      <point x="148" y="700" type="line"/>
      <point x="477" y="700" type="line"/>
      <point x="200" y="280" type="line"/>
      <point x="108" y="280" type="line"/>
      <point x="335" y="619" type="line"/>
    </contour>
  </outline>
</glyph>
<glyph name="uni2079" format="1">
  <advance width="369"/>
  <unicode hex="2079"/>
  <outline>
    <contour>
      <point x="366" y="557" type="curve" smooth="yes"/>
      <point x="374" y="605"/>
      <point x="348" y="636"/>
      <point x="304" y="636" type="curve" smooth="yes"/>
      <point x="260" y="636"/>
      <point x="220" y="605"/>
      <point x="212" y="557" type="curve" smooth="yes"/>
      <point x="204" y="509"/>
      <point x="232" y="478"/>
      <point x="276" y="478" type="curve" smooth="yes"/>
      <point x="320" y="478"/>
      <point x="358" y="509"/>
    </contour>
    <contour>
      <point x="235" y="284" type="line"/>
      <point x="125" y="284" type="line"/>
      <point x="288" y="442" type="line"/>
      <point x="304" y="446" type="line"/>
      <point x="280" y="424"/>
      <point x="260" y="421"/>
      <point x="231" y="421" type="curve" smooth="yes"/>
      <point x="167" y="421"/>
      <point x="112" y="475"/>
      <point x="126" y="557" type="curve" smooth="yes"/>
      <point x="143" y="655"/>
      <point x="227" y="711"/>
      <point x="317" y="711" type="curve" smooth="yes"/>
      <point x="407" y="711"/>
      <point x="469" y="655"/>
      <point x="452" y="557" type="curve" smooth="yes"/>
      <point x="445" y="515"/>
      <point x="420" y="480"/>
      <point x="391" y="450" type="curve" smooth="yes"/>
    </contour>
  </outline>
</glyph>
<glyph name="uni2080" format="1">
  <advance width="384"/>
  <unicode hex="2080"/>
  <outline>
    <contour>
      <point x="144" y="210" type="curve" smooth="yes"/>
      <point x="129" y="126"/>
      <point x="153" y="68"/>
      <point x="205" y="68" type="curve" smooth="yes"/>
      <point x="257" y="68"/>
      <point x="300" y="126"/>
      <point x="315" y="210" type="curve" smooth="yes"/>
      <point x="330" y="294"/>
      <point x="307" y="352"/>
      <point x="255" y="352" type="curve" smooth="yes"/>
      <point x="203" y="352"/>
      <point x="159" y="294"/>
    </contour>
    <contour>
      <point x="60" y="210" type="curve" smooth="yes"/>
      <point x="83" y="343"/>
      <point x="168" y="428"/>
      <point x="268" y="428" type="curve" smooth="yes"/>
      <point x="370" y="428"/>
      <point x="422" y="343"/>
      <point x="399" y="210" type="curve" smooth="yes"/>
      <point x="376" y="77"/>
      <point x="294" y="-8"/>
      <point x="192" y="-8" type="curve" smooth="yes"/>
      <point x="92" y="-8"/>
      <point x="37" y="77"/>
    </contour>
  </outline>
</glyph>
<glyph name="uni2085" format="1">
  <advance width="384"/>
  <unicode hex="2085"/>
  <outline>
    <contour>
      <point x="375" y="133" type="curve" smooth="yes"/>
      <point x="358" y="36"/>
      <point x="269" y="-10"/>
      <point x="188" y="-10" type="curve" smooth="yes"/>
      <point x="111" y="-10"/>
      <point x="68" y="21"/>
      <point x="38" y="55" type="curve"/>
      <point x="90" y="124" type="line"/>
      <point x="115" y="94"/>
      <point x="150" y="70"/>
      <point x="186" y="70" type="curve" smooth="yes"/>
      <point x="239" y="70"/>
      <point x="277" y="96"/>
      <point x="285" y="142" type="curve" smooth="yes"/>
      <point x="293" y="188"/>
      <point x="256" y="211"/>
      <point x="211" y="211" type="curve" smooth="yes"/>
      <point x="177" y="211"/>
      <point x="139" y="204"/>
      <point x="92" y="180" type="curve"/>
      <point x="158" y="228" type="line"/>
      <point x="195" y="261"/>
      <point x="234" y="272"/>
      <point x="274" y="272" type="curve" smooth="yes"/>
      <point x="342" y="272"/>
      <point x="390" y="218"/>
    </contour>
    <contour>
      <point x="240" y="343" type="line"/>
      <point x="188" y="232" type="line"/>
      <point x="92" y="180" type="line"/>
      <point x="190" y="418" type="line"/>
      <point x="420" y="418" type="line"/>
      <point x="406" y="343" type="line"/>
    </contour>
  </outline>
</glyph>
<glyph name="uni2086" format="1">
  <advance width="379"/>
  <unicode hex="2086"/>
  <outline>
    <contour>
      <point x="139" y="143" type="curve" smooth="yes"/>
      <point x="131" y="95"/>
      <point x="159" y="64"/>
      <point x="203" y="64" type="curve" smooth="yes"/>
      <point x="247" y="64"/>
      <point x="285" y="95"/>
      <point x="293" y="143" type="curve" smooth="yes"/>
      <point x="301" y="191"/>
      <point x="275" y="222"/>
      <point x="231" y="222" type="curve" smooth="yes"/>
      <point x="187" y="222"/>
      <point x="147" y="191"/>
    </contour>
    <contour>
      <point x="271" y="416" type="line"/>
      <point x="380" y="416" type="line"/>
      <point x="217" y="258" type="line"/>
      <point x="203" y="254" type="line"/>
      <point x="227" y="276"/>
      <point x="246" y="279"/>
      <point x="275" y="279" type="curve" smooth="yes"/>
      <point x="339" y="279"/>
      <point x="393" y="225"/>
      <point x="379" y="143" type="curve" smooth="yes"/>
      <point x="362" y="45"/>
      <point x="280" y="-11"/>
      <point x="190" y="-11" type="curve" smooth="yes"/>
      <point x="100" y="-11"/>
      <point x="36" y="45"/>
      <point x="53" y="143" type="curve" smooth="yes"/>
      <point x="60" y="185"/>
      <point x="85" y="220"/>
      <point x="114" y="250" type="curve" smooth="yes"/>
    </contour>
  </outline>
</glyph>
<glyph name="uni2151" format="1">
  <advance width="854"/>
  <unicode hex="2151"/>
  <outline>
    <contour>
      <point x="713" y="700" type="line"/>
      <point x="817" y="700" type="line"/>
      <point x="174" y="0" type="line"/>
      <point x="70" y="0" type="line"/>
    </contour>
    <contour>
      <point x="129" y="584" type="line"/>
      <point x="143" y="662" type="line"/>
      <point x="334" y="702" type="line"/>
      <point x="258" y="274" type="line"/>
      <point x="174" y="274" type="line"/>
      <point x="234" y="610" type="line"/>
    </contour>
    <contour>
      <point x="796" y="277" type="curve" smooth="yes"/>
      <point x="804" y="325"/>
      <point x="777" y="356"/>
      <point x="733" y="356" type="curve" smooth="yes"/>
      <point x="689" y="356"/>
      <point x="649" y="325"/>
      <point x="641" y="277" type="curve" smooth="yes"/>
      <point x="633" y="229"/>
      <point x="661" y="198"/>
      <point x="705" y="198" type="curve" smooth="yes"/>
      <point x="749" y="198"/>
      <point x="788" y="229"/>
    </contour>
    <contour>
      <point x="665" y="4" type="line"/>
      <point x="555" y="4" type="line"/>
      <point x="717" y="162" type="line"/>
      <point x="733" y="166" type="line"/>
      <point x="709" y="144"/>
      <point x="690" y="141"/>
      <point x="661" y="141" type="curve" smooth="yes"/>
      <point x="597" y="141"/>
      <point x="543" y="195"/>
      <point x="557" y="277" type="curve" smooth="yes"/>
      <point x="574" y="375"/>
      <point x="656" y="431"/>
      <point x="746" y="431" type="curve" smooth="yes"/>
      <point x="836" y="431"/>
      <point x="899" y="375"/>
      <point x="882" y="277" type="curve" smooth="yes"/>
      <point x="875" y="235"/>
      <point x="849" y="200"/>
      <point x="820" y="170" type="curve" smooth="yes"/>
    </contour>
  </outline>
</glyph>
<glyph name="onethird" format="1">
  <advance width="837"/>
  <unicode hex="2153"/>
  <outline>
    <contour>
      <point x="712" y="700" type="line"/>
      <point x="817" y="700" type="line"/>
      <point x="174" y="0" type="line"/>
      <point x="69" y="0" type="line"/>
    </contour>
    <contour>
      <point x="129" y="584" type="line"/>
      <point x="143" y="662" type="line"/>
      <point x="334" y="702" type="line"/>
      <point x="258" y="274" type="line"/>
      <point x="174" y="274" type="line"/>
      <point x="234" y="610" type="line"/>
    </contour>
    <contour>
      <point x="671" y="205" type="curve"/>
      <point x="678" y="246" type="line"/>
      <point x="726" y="246"/>
      <point x="762" y="275"/>
      <point x="768" y="308" type="curve" smooth="yes"/>
      <point x="773" y="338"/>
      <point x="760" y="357"/>
      <point x="725" y="357" type="curve" smooth="yes"/>
      <point x="691" y="357"/>
      <point x="662" y="334"/>
      <point x="656" y="302" type="curve"/>
      <point x="575" y="302" type="line"/>
      <point x="588" y="374"/>
      <point x="654" y="428"/>
      <point x="738" y="428" type="curve" smooth="yes"/>
      <point x="826" y="428"/>
      <point x="866" y="374"/>
      <point x="855" y="312" type="curve" smooth="yes"/>
      <point x="843" y="244"/>
      <point x="765" y="205"/>
    </contour>
    <contour>
      <point x="656" y="-9" type="curve" smooth="yes"/>
      <point x="560" y="-9"/>
      <point x="513" y="55"/>
      <point x="526" y="127" type="curve"/>
      <point x="612" y="127" type="line"/>
      <point x="605" y="85"/>
      <point x="633" y="63"/>
      <point x="672" y="63" type="curve" smooth="yes"/>
      <point x="711" y="63"/>
      <point x="741" y="83"/>
      <point x="748" y="122" type="curve" smooth="yes"/>
      <point x="755" y="162"/>
      <point x="728" y="187"/>
      <point x="668" y="187" type="curve"/>
      <point x="676" y="233" type="line"/>
      <point x="778" y="233"/>
      <point x="847" y="197"/>
      <point x="832" y="113" type="curve" smooth="yes"/>
      <point x="819" y="41"/>
      <point x="750" y="-9"/>
    </contour>
  </outline>
</glyph>
<glyph name="uni2155" format="1">
  <advance width="826"/>
  <unicode hex="2155"/>
  <outline>
    <contour>
      <point x="713" y="700" type="line"/>
      <point x="817" y="700" type="line"/>
      <point x="174" y="0" type="line"/>
      <point x="70" y="0" type="line"/>
    </contour>
    <contour>
      <point x="129" y="584" type="line"/>
      <point x="143" y="662" type="line"/>
      <point x="334" y="702" type="line"/>
      <point x="258" y="274" type="line"/>
      <point x="174" y="274" type="line"/>
      <point x="234" y="610" type="line"/>
    </contour>
    <contour>
      <point x="825" y="133" type="curve" smooth="yes"/>
      <point x="808" y="36"/>
      <point x="718" y="-10"/>
      <point x="637" y="-10" type="curve" smooth="yes"/>
      <point x="560" y="-10"/>
      <point x="517" y="21"/>
      <point x="487" y="55" type="curve"/>
      <point x="540" y="124" type="line"/>
      <point x="565" y="94"/>
      <point x="600" y="70"/>
      <point x="636" y="70" type="curve" smooth="yes"/>
      <point x="689" y="70"/>
      <point x="725" y="96"/>
      <point x="733" y="142" type="curve" smooth="yes"/>
      <point x="741" y="188"/>
      <point x="706" y="211"/>
      <point x="661" y="211" type="curve" smooth="yes"/>
      <point x="627" y="211"/>
      <point x="588" y="204"/>
      <point x="541" y="180" type="curve"/>
      <point x="607" y="228" type="line"/>
      <point x="644" y="261"/>
      <point x="683" y="272"/>
      <point x="723" y="272" type="curve" smooth="yes"/>
      <point x="791" y="272"/>
      <point x="840" y="218"/>
    </contour>
    <contour>
      <point x="690" y="343" type="line"/>
      <point x="637" y="232" type="line"/>
      <point x="541" y="180" type="line"/>
      <point x="640" y="418" type="line"/>
      <point x="870" y="418" type="line"/>
      <point x="856" y="343" type="line"/>
    </contour>
  </outline>
</glyph>
<glyph name="uni2156" format="1">
  <advance width="964"/>
  <unicode hex="2156"/>
  <outline>
    <contour>
      <point x="853" y="700" type="line"/>
      <point x="957" y="700" type="line"/>
      <point x="314" y="0" type="line"/>
      <point x="210" y="0" type="line"/>
    </contour>
    <contour>
      <point x="80" y="282" type="line"/>
      <point x="306" y="482" type="line" smooth="yes"/>
      <point x="344" y="516"/>
      <point x="367" y="541"/>
      <point x="373" y="575" type="curve" smooth="yes"/>
      <point x="378" y="605"/>
      <point x="364" y="635"/>
      <point x="322" y="635" type="curve" smooth="yes"/>
      <point x="278" y="635"/>
      <point x="242" y="600"/>
      <point x="233" y="550" type="curve"/>
      <point x="148" y="550" type="line"/>
      <point x="164" y="639"/>
      <point x="234" y="710"/>
      <point x="337" y="710" type="curve" smooth="yes"/>
      <point x="437" y="710"/>
      <point x="473" y="640"/>
      <point x="462" y="577" type="curve" smooth="yes"/>
      <point x="454" y="533"/>
      <point x="425" y="495"/>
      <point x="384" y="463" type="curve" smooth="yes"/>
      <point x="257" y="362" type="line"/>
      <point x="432" y="362" type="line"/>
      <point x="418" y="282" type="line"/>
    </contour>
    <contour>
      <point x="957" y="133" type="curve" smooth="yes"/>
      <point x="940" y="36"/>
      <point x="850" y="-10"/>
      <point x="769" y="-10" type="curve" smooth="yes"/>
      <point x="692" y="-10"/>
      <point x="648" y="21"/>
      <point x="618" y="55" type="curve"/>
      <point x="671" y="124" type="line"/>
      <point x="696" y="94"/>
      <point x="731" y="70"/>
      <point x="767" y="70" type="curve" smooth="yes"/>
      <point x="820" y="70"/>
      <point x="857" y="96"/>
      <point x="865" y="142" type="curve" smooth="yes"/>
      <point x="873" y="188"/>
      <point x="837" y="211"/>
      <point x="792" y="211" type="curve" smooth="yes"/>
      <point x="758" y="211"/>
      <point x="720" y="204"/>
      <point x="673" y="180" type="curve"/>
      <point x="739" y="228" type="line"/>
      <point x="776" y="261"/>
      <point x="815" y="272"/>
      <point x="855" y="272" type="curve" smooth="yes"/>
      <point x="923" y="272"/>
      <point x="972" y="218"/>
    </contour>
    <contour>
      <point x="822" y="343" type="line"/>
      <point x="769" y="232" type="line"/>
      <point x="673" y="180" type="line"/>
      <point x="772" y="418" type="line"/>
      <point x="1001" y="418" type="line"/>
      <point x="987" y="343" type="line"/>
    </contour>
  </outline>
</glyph>
<glyph name="oneeighth" format="1">
  <advance width="851"/>
  <unicode hex="215B"/>
  <outline>
    <contour>
      <point x="726" y="700" type="line"/>
      <point x="831" y="700" type="line"/>
      <point x="188" y="0" type="line"/>
      <point x="83" y="0" type="line"/>
    </contour>
    <contour>
      <point x="129" y="584" type="line"/>
      <point x="143" y="662" type="line"/>
      <point x="334" y="702" type="line"/>
      <point x="258" y="274" type="line"/>
      <point x="174" y="274" type="line"/>
      <point x="234" y="610" type="line"/>
    </contour>
    <contour>
      <point x="594" y="319" type="curve" smooth="yes"/>
      <point x="606" y="386"/>
      <point x="674" y="429"/>
      <point x="748" y="429" type="curve" smooth="yes"/>
      <point x="822" y="429"/>
      <point x="874" y="386"/>
      <point x="862" y="319" type="curve" smooth="yes"/>
      <point x="849" y="246"/>
      <point x="778" y="208"/>
      <point x="709" y="208" type="curve" smooth="yes"/>
      <point x="640" y="208"/>
      <point x="581" y="246"/>
    </contour>
    <contour>
      <point x="675" y="311" type="curve" smooth="yes"/>
      <point x="669" y="279"/>
      <point x="688" y="256"/>
      <point x="717" y="256" type="curve" smooth="yes"/>
      <point x="746" y="256"/>
      <point x="774" y="279"/>
      <point x="780" y="311" type="curve" smooth="yes"/>
      <point x="786" y="343"/>
      <point x="767" y="364"/>
      <point x="736" y="364" type="curve" smooth="yes"/>
      <point x="705" y="364"/>
      <point x="681" y="343"/>
    </contour>
    <contour>
      <point x="542" y="114" type="curve" smooth="yes"/>
      <point x="557" y="199"/>
      <point x="645" y="237"/>
      <point x="714" y="237" type="curve" smooth="yes"/>
      <point x="783" y="237"/>
      <point x="856" y="199"/>
      <point x="841" y="114" type="curve" smooth="yes"/>
      <point x="828" y="41"/>
      <point x="750" y="-9"/>
      <point x="670" y="-9" type="curve" smooth="yes"/>
      <point x="590" y="-9"/>
      <point x="529" y="41"/>
    </contour>
    <contour>
      <point x="630" y="127" type="curve" smooth="yes"/>
      <point x="623" y="85"/>
      <point x="649" y="62"/>
      <point x="683" y="62" type="curve" smooth="yes"/>
      <point x="717" y="62"/>
      <point x="751" y="85"/>
      <point x="758" y="127" type="curve" smooth="yes"/>
      <point x="764" y="163"/>
      <point x="739" y="189"/>
      <point x="705" y="189" type="curve" smooth="yes"/>
      <point x="671" y="189"/>
      <point x="636" y="163"/>
    </contour>
  </outline>
</glyph>
<glyph name="uniFF11" format="1">
  <advance width="615"/>
  <unicode hex="FF11"/>
  <outline>
    <contour>
      <point x="201" y="517" type="line"/>
      <point x="224" y="646" type="line"/>
      <point x="544" y="712" type="line"/>
      <point x="418" y="0" type="line"/>
      <point x="278" y="0" type="line"/>
      <point x="377" y="560" type="line"/>
    </contour>
  </outline>
</glyph>
<glyph name="uniFF12" format="1">
  <advance width="615"/>
  <unicode hex="FF12"/>
  <outline>
    <contour>
      <point x="17" y="0" type="line"/>
      <point x="393" y="332" type="line" smooth="yes"/>
      <point x="456" y="389"/>
      <point x="496" y="432"/>
      <point x="506" y="488" type="curve" smooth="yes"/>
      <point x="515" y="537"/>
      <point x="490" y="587"/>
      <point x="420" y="587" type="curve" smooth="yes"/>
      <point x="348" y="587"/>
      <point x="288" y="530"/>
      <point x="273" y="446" type="curve"/>
      <point x="131" y="446" type="line"/>
      <point x="157" y="595"/>
      <point x="275" y="713"/>
      <point x="446" y="713" type="curve" smooth="yes"/>
      <point x="614" y="713"/>
      <point x="674" y="596"/>
      <point x="655" y="491" type="curve" smooth="yes"/>
      <point x="642" y="417"/>
      <point x="590" y="355"/>
      <point x="523" y="302" type="curve" smooth="yes"/>
      <point x="311" y="132" type="line"/>
      <point x="604" y="132" type="line"/>
      <point x="581" y="0" type="line"/>
    </contour>
  </outline>
</glyph>
<glyph name="aring.alt" format="1">
  <advance width="602"/>
  <outline>
    <contour>
      <point x="495" y="460" type="line"/>
      <point x="623" y="460" type="line"/>
      <point x="542" y="0" type="line"/>
      <point x="414" y="0" type="line"/>
    </contour>
    <contour>
      <point x="74" y="230" type="curve" smooth="yes"/>
      <point x="102" y="388"/>
      <point x="222" y="474"/>
      <point x="338" y="474" type="curve" smooth="yes"/>
      <point x="458" y="474"/>
      <point x="515" y="379"/>
      <point x="489" y="230" type="curve" smooth="yes"/>
      <point x="463" y="81"/>
      <point x="372" y="-14"/>
      <point x="252" y="-14" type="curve" smooth="yes"/>
      <point x="136" y="-14"/>
      <point x="46" y="72"/>
    </contour>
    <contour>
      <point x="209" y="230" type="curve" smooth="yes"/>
      <point x="195" y="148"/>
      <point x="242" y="102"/>
      <point x="310" y="102" type="curve" smooth="yes"/>
      <point x="366" y="102"/>
      <point x="438" y="146"/>
      <point x="453" y="230" type="curve" smooth="yes"/>
      <point x="468" y="314"/>
      <point x="411" y="358"/>
      <point x="355" y="358" type="curve" smooth="yes"/>
      <point x="287" y="358"/>
      <point x="223" y="312"/>
    </contour>
    <contour>
      <point x="313" y="628" type="curve" smooth="yes"/>
      <point x="325" y="694"/>
      <point x="386" y="740"/>
      <point x="450" y="740" type="curve" smooth="yes"/>
      <point x="514" y="740"/>
      <point x="561" y="694"/>
      <point x="549" y="628" type="curve" smooth="yes"/>
      <point x="537" y="562"/>
      <point x="475" y="518"/>
      <point x="411" y="518" type="curve" smooth="yes"/>
      <point x="347" y="518"/>
      <point x="301" y="562"/>
    </contour>
    <contour>
      <point x="383" y="628" type="curve" smooth="yes"/>
      <point x="378" y="597"/>
      <point x="397" y="579"/>
      <point x="422" y="579" type="curve" smooth="yes"/>
      <point x="447" y="579"/>
      <point x="474" y="597"/>
      <point x="479" y="628" type="curve" smooth="yes"/>
      <point x="484" y="659"/>
      <point x="465" y="678"/>
      <point x="440" y="678" type="curve" smooth="yes"/>
      <point x="415" y="678"/>
      <point x="388" y="659"/>
    </contour>
  </outline>
</glyph>
<glyph name="atilde.alt" format="1">
  <advance width="602"/>
  <outline>
    <contour>
      <point x="495" y="460" type="line"/>
      <point x="623" y="460" type="line"/>
      <point x="542" y="0" type="line"/>
      <point x="414" y="0" type="line"/>
    </contour>
    <contour>
      <point x="74" y="230" type="curve" smooth="yes"/>
      <point x="102" y="388"/>
      <point x="222" y="474"/>
      <point x="338" y="474" type="curve" smooth="yes"/>
      <point x="458" y="474"/>
      <point x="515" y="379"/>
      <point x="489" y="230" type="curve" smooth="yes"/>
      <point x="463" y="81"/>
      <point x="372" y="-14"/>
      <point x="252" y="-14" type="curve" smooth="yes"/>
      <point x="136" y="-14"/>
      <point x="46" y="72"/>
    </contour>
    <contour>
      <point x="209" y="230" type="curve" smooth="yes"/>
      <point x="195" y="148"/>
      <point x="242" y="102"/>
      <point x="310" y="102" type="curve" smooth="yes"/>
      <point x="366" y="102"/>
      <point x="438" y="146"/>
      <point x="453" y="230" type="curve" smooth="yes"/>
      <point x="468" y="314"/>
      <point x="411" y="358"/>
      <point x="355" y="358" type="curve" smooth="yes"/>
      <point x="287" y="358"/>
      <point x="223" y="312"/>
    </contour>
    <contour>
      <point x="226" y="589" type="line"/>
      <point x="245" y="638"/>
      <point x="300" y="679"/>
      <point x="358" y="679" type="curve" smooth="yes"/>
      <point x="424" y="679"/>
      <point x="425" y="630"/>
      <point x="481" y="630" type="curve" smooth="yes"/>
      <point x="505" y="630"/>
      <point x="527" y="649"/>
      <point x="553" y="681" type="curve"/>
      <point x="605" y="616" type="line"/>
      <point x="582" y="579"/>
      <point x="522" y="534"/>
      <point x="464" y="534" type="curve" smooth="yes"/>
      <point x="409" y="534"/>
      <point x="387" y="586"/>
      <point x="339" y="586" type="curve" smooth="yes"/>
      <point x="300" y="586"/>
      <point x="285" y="549"/>
      <point x="282" y="534" type="curve"/>
    </contour>
  </outline>
</glyph>
